<svg xmlns="http://www.w3.org/2000/svg" width="1000" height="420" viewBox="0 0 1000 420"><rect width="1000" height="420" fill="#FFFFFF"/><path d="M 0 0 L 492 0 L 492 420 L 0 420 Z" fill="#FFFFFF"/><path d="M 69.5 50 L 69.5 360 L 70.5 360 L 70.5 50 Z" fill="#D9DDE3"/><path d="M 57.751221 382.905762 Q 56.91333 382.905762 56.491699 383.730225 Q 56.070068 384.554688 56.070068 386.208984 Q 56.070068 387.85791 56.491699 388.682373 Q 56.91333 389.506836 57.751221 389.506836 Q 58.594482 389.506836 59.016113 388.682373 Q 59.437744 387.85791 59.437744 386.208984 Q 59.437744 384.554688 59.016113 383.730225 Q 58.594482 382.905762 57.751221 382.905762 Z M 57.751221 382.046387 Q 59.099365 382.046387 59.811035 383.112549 Q 60.522705 384.178711 60.522705 386.208984 Q 60.522705 388.233887 59.811035 389.300049 Q 59.099365 390.366211 57.751221 390.366211 Q 56.403076 390.366211 55.691406 389.300049 Q 54.979736 388.233887 54.979736 386.208984 Q 54.979736 384.178711 55.691406 383.112549 Q 56.403076 382.046387 57.751221 382.046387 Z M 62.429443 388.846191 L 63.562744 388.846191 L 63.562744 390.210449 L 62.429443 390.210449 Z M 68.246338 382.905762 Q 67.408447 382.905762 66.986816 383.730225 Q 66.565186 384.554688 66.565186 386.208984 Q 66.565186 387.85791 66.986816 388.682373 Q 67.408447 389.506836 68.246338 389.506836 Q 69.0896 389.506836 69.51123 388.682373 Q 69.932861 387.85791 69.932861 386.208984 Q 69.932861 384.554688 69.51123 383.730225 Q 69.0896 382.905762 68.246338 382.905762 Z M 68.246338 382.046387 Q 69.594482 382.046387 70.306152 383.112549 Q 71.017822 384.178711 71.017822 386.208984 Q 71.017822 388.233887 70.306152 389.300049 Q 69.594482 390.366211 68.246338 390.366211 Q 66.898193 390.366211 66.186523 389.300049 Q 65.474854 388.233887 65.474854 386.208984 Q 65.474854 384.178711 66.186523 383.112549 Q 66.898193 382.046387 68.246338 382.046387 Z M 75.244873 382.905762 Q 74.406982 382.905762 73.985352 383.730225 Q 73.563721 384.554688 73.563721 386.208984 Q 73.563721 387.85791 73.985352 388.682373 Q 74.406982 389.506836 75.244873 389.506836 Q 76.088135 389.506836 76.509766 388.682373 Q 76.931396 387.85791 76.931396 386.208984 Q 76.931396 384.554688 76.509766 383.730225 Q 76.088135 382.905762 75.244873 382.905762 Z M 75.244873 382.046387 Q 76.593018 382.046387 77.304688 383.112549 Q 78.016357 384.178711 78.016357 386.208984 Q 78.016357 388.233887 77.304688 389.300049 Q 76.593018 390.366211 75.244873 390.366211 Q 73.896729 390.366211 73.185059 389.300049 Q 72.473389 388.233887 72.473389 386.208984 Q 72.473389 384.178711 73.185059 383.112549 Q 73.896729 382.046387 75.244873 382.046387 Z M 82.243408 382.905762 Q 81.405518 382.905762 80.983887 383.730225 Q 80.562256 384.554688 80.562256 386.208984 Q 80.562256 387.85791 80.983887 388.682373 Q 81.405518 389.506836 82.243408 389.506836 Q 83.08667 389.506836 83.508301 388.682373 Q 83.929932 387.85791 83.929932 386.208984 Q 83.929932 384.554688 83.508301 383.730225 Q 83.08667 382.905762 82.243408 382.905762 Z M 82.243408 382.046387 Q 83.591553 382.046387 84.303223 383.112549 Q 85.014893 384.178711 85.014893 386.208984 Q 85.014893 388.233887 84.303223 389.300049 Q 83.591553 390.366211 82.243408 390.366211 Q 80.895264 390.366211 80.183594 389.300049 Q 79.471924 388.233887 79.471924 386.208984 Q 79.471924 384.178711 80.183594 383.112549 Q 80.895264 382.046387 82.243408 382.046387 Z" fill="#202124"/><path d="M 167.5 50 L 167.5 360 L 168.5 360 L 168.5 50 Z" fill="#D9DDE3"/><path d="M 153.618896 389.297363 L 155.391357 389.297363 L 155.391357 383.179688 L 153.463135 383.566406 L 153.463135 382.578125 L 155.380615 382.191406 L 156.465576 382.191406 L 156.465576 389.297363 L 158.238037 389.297363 L 158.238037 390.210449 L 153.618896 390.210449 Z M 160.429443 388.846191 L 161.562744 388.846191 L 161.562744 390.210449 L 160.429443 390.210449 Z M 164.860596 389.297363 L 168.647217 389.297363 L 168.647217 390.210449 L 163.55542 390.210449 L 163.55542 389.297363 Q 164.173096 388.658203 165.239258 387.581299 Q 166.30542 386.504395 166.579346 386.192871 Q 167.100342 385.607422 167.307129 385.201904 Q 167.513916 384.796387 167.513916 384.404297 Q 167.513916 383.765137 167.06543 383.362305 Q 166.616943 382.959473 165.897217 382.959473 Q 165.386963 382.959473 164.820312 383.136719 Q 164.253662 383.313965 163.609131 383.673828 L 163.609131 382.578125 Q 164.264404 382.314941 164.83374 382.180664 Q 165.403076 382.046387 165.875732 382.046387 Q 167.121826 382.046387 167.863037 382.669434 Q 168.604248 383.29248 168.604248 384.334473 Q 168.604248 384.828613 168.418945 385.271729 Q 168.233643 385.714844 167.744873 386.316406 Q 167.610596 386.472168 166.890869 387.216064 Q 166.171143 387.959961 164.860596 389.297363 Z M 170.935303 382.191406 L 175.19458 382.191406 L 175.19458 383.104492 L 171.928955 383.104492 L 171.928955 385.070312 Q 172.165283 384.989746 172.401611 384.949463 Q 172.637939 384.90918 172.874268 384.90918 Q 174.217041 384.90918 175.001221 385.64502 Q 175.7854 386.380859 175.7854 387.637695 Q 175.7854 388.932129 174.979736 389.64917 Q 174.174072 390.366211 172.707764 390.366211 Q 172.202881 390.366211 171.679199 390.280273 Q 171.155518 390.194336 170.596924 390.022461 L 170.596924 388.932129 Q 171.080322 389.195312 171.595947 389.324219 Q 172.111572 389.453125 172.686279 389.453125 Q 173.615479 389.453125 174.157959 388.964355 Q 174.700439 388.475586 174.700439 387.637695 Q 174.700439 386.799805 174.157959 386.311035 Q 173.615479 385.822266 172.686279 385.822266 Q 172.251221 385.822266 171.818848 385.918945 Q 171.386475 386.015625 170.935303 386.219727 Z M 180.243408 382.905762 Q 179.405518 382.905762 178.983887 383.730225 Q 178.562256 384.554688 178.562256 386.208984 Q 178.562256 387.85791 178.983887 388.682373 Q 179.405518 389.506836 180.243408 389.506836 Q 181.08667 389.506836 181.508301 388.682373 Q 181.929932 387.85791 181.929932 386.208984 Q 181.929932 384.554688 181.508301 383.730225 Q 181.08667 382.905762 180.243408 382.905762 Z M 180.243408 382.046387 Q 181.591553 382.046387 182.303223 383.112549 Q 183.014893 384.178711 183.014893 386.208984 Q 183.014893 388.233887 182.303223 389.300049 Q 181.591553 390.366211 180.243408 390.366211 Q 178.895264 390.366211 178.183594 389.300049 Q 177.471924 388.233887 177.471924 386.208984 Q 177.471924 384.178711 178.183594 383.112549 Q 178.895264 382.046387 180.243408 382.046387 Z" fill="#202124"/><path d="M 265.5 50 L 265.5 360 L 266.5 360 L 266.5 50 Z" fill="#D9DDE3"/><path d="M 252.365479 389.297363 L 256.1521 389.297363 L 256.1521 390.210449 L 251.060303 390.210449 L 251.060303 389.297363 Q 251.677979 388.658203 252.744141 387.581299 Q 253.810303 386.504395 254.084229 386.192871 Q 254.605225 385.607422 254.812012 385.201904 Q 255.018799 384.796387 255.018799 384.404297 Q 255.018799 383.765137 254.570312 383.362305 Q 254.121826 382.959473 253.4021 382.959473 Q 252.891846 382.959473 252.325195 383.136719 Q 251.758545 383.313965 251.114014 383.673828 L 251.114014 382.578125 Q 251.769287 382.314941 252.338623 382.180664 Q 252.907959 382.046387 253.380615 382.046387 Q 254.626709 382.046387 255.36792 382.669434 Q 256.109131 383.29248 256.109131 384.334473 Q 256.109131 384.828613 255.923828 385.271729 Q 255.738525 385.714844 255.249756 386.316406 Q 255.115479 386.472168 254.395752 387.216064 Q 253.676025 387.959961 252.365479 389.297363 Z M 258.429443 388.846191 L 259.562744 388.846191 L 259.562744 390.210449 L 258.429443 390.210449 Z M 261.936768 382.191406 L 266.196045 382.191406 L 266.196045 383.104492 L 262.93042 383.104492 L 262.93042 385.070312 Q 263.166748 384.989746 263.403076 384.949463 Q 263.639404 384.90918 263.875732 384.90918 Q 265.218506 384.90918 266.002686 385.64502 Q 266.786865 386.380859 266.786865 387.637695 Q 266.786865 388.932129 265.981201 389.64917 Q 265.175537 390.366211 263.709229 390.366211 Q 263.204346 390.366211 262.680664 390.280273 Q 262.156982 390.194336 261.598389 390.022461 L 261.598389 388.932129 Q 262.081787 389.195312 262.597412 389.324219 Q 263.113037 389.453125 263.687744 389.453125 Q 264.616943 389.453125 265.159424 388.964355 Q 265.701904 388.475586 265.701904 387.637695 Q 265.701904 386.799805 265.159424 386.311035 Q 264.616943 385.822266 263.687744 385.822266 Q 263.252686 385.822266 262.820312 385.918945 Q 262.387939 386.015625 261.936768 386.219727 Z M 271.244873 382.905762 Q 270.406982 382.905762 269.985352 383.730225 Q 269.563721 384.554688 269.563721 386.208984 Q 269.563721 387.85791 269.985352 388.682373 Q 270.406982 389.506836 271.244873 389.506836 Q 272.088135 389.506836 272.509766 388.682373 Q 272.931396 387.85791 272.931396 386.208984 Q 272.931396 384.554688 272.509766 383.730225 Q 272.088135 382.905762 271.244873 382.905762 Z M 271.244873 382.046387 Q 272.593018 382.046387 273.304688 383.112549 Q 274.016357 384.178711 274.016357 386.208984 Q 274.016357 388.233887 273.304688 389.300049 Q 272.593018 390.366211 271.244873 390.366211 Q 269.896729 390.366211 269.185059 389.300049 Q 268.473389 388.233887 268.473389 386.208984 Q 268.473389 384.178711 269.185059 383.112549 Q 269.896729 382.046387 271.244873 382.046387 Z M 278.243408 382.905762 Q 277.405518 382.905762 276.983887 383.730225 Q 276.562256 384.554688 276.562256 386.208984 Q 276.562256 387.85791 276.983887 388.682373 Q 277.405518 389.506836 278.243408 389.506836 Q 279.08667 389.506836 279.508301 388.682373 Q 279.929932 387.85791 279.929932 386.208984 Q 279.929932 384.554688 279.508301 383.730225 Q 279.08667 382.905762 278.243408 382.905762 Z M 278.243408 382.046387 Q 279.591553 382.046387 280.303223 383.112549 Q 281.014893 384.178711 281.014893 386.208984 Q 281.014893 388.233887 280.303223 389.300049 Q 279.591553 390.366211 278.243408 390.366211 Q 276.895264 390.366211 276.183594 389.300049 Q 275.471924 388.233887 275.471924 386.208984 Q 275.471924 384.178711 276.183594 383.112549 Q 276.895264 382.046387 278.243408 382.046387 Z" fill="#202124"/><path d="M 363.5 50 L 363.5 360 L 364.5 360 L 364.5 50 Z" fill="#D9DDE3"/><path d="M 352.718018 385.886719 Q 353.496826 386.053223 353.93457 386.57959 Q 354.372314 387.105957 354.372314 387.879395 Q 354.372314 389.066406 353.555908 389.716309 Q 352.739502 390.366211 351.235596 390.366211 Q 350.730713 390.366211 350.196289 390.266846 Q 349.661865 390.16748 349.092529 389.96875 L 349.092529 388.921387 Q 349.543701 389.18457 350.080811 389.318848 Q 350.61792 389.453125 351.203369 389.453125 Q 352.223877 389.453125 352.758301 389.050293 Q 353.292725 388.647461 353.292725 387.879395 Q 353.292725 387.17041 352.795898 386.770264 Q 352.299072 386.370117 351.412842 386.370117 L 350.478271 386.370117 L 350.478271 385.478516 L 351.455811 385.478516 Q 352.256104 385.478516 352.68042 385.158936 Q 353.104736 384.839355 353.104736 384.237793 Q 353.104736 383.620117 352.666992 383.289795 Q 352.229248 382.959473 351.412842 382.959473 Q 350.967041 382.959473 350.456787 383.056152 Q 349.946533 383.152832 349.334229 383.356934 L 349.334229 382.390137 Q 349.951904 382.218262 350.491699 382.132324 Q 351.031494 382.046387 351.509521 382.046387 Q 352.744873 382.046387 353.4646 382.607666 Q 354.184326 383.168945 354.184326 384.125 Q 354.184326 384.791016 353.802979 385.250244 Q 353.421631 385.709473 352.718018 385.886719 Z M 356.429443 388.846191 L 357.562744 388.846191 L 357.562744 390.210449 L 356.429443 390.210449 Z M 359.6521 382.191406 L 364.80835 382.191406 L 364.80835 382.65332 L 361.897217 390.210449 L 360.763916 390.210449 L 363.503174 383.104492 L 359.6521 383.104492 Z M 366.935303 382.191406 L 371.19458 382.191406 L 371.19458 383.104492 L 367.928955 383.104492 L 367.928955 385.070312 Q 368.165283 384.989746 368.401611 384.949463 Q 368.637939 384.90918 368.874268 384.90918 Q 370.217041 384.90918 371.001221 385.64502 Q 371.7854 386.380859 371.7854 387.637695 Q 371.7854 388.932129 370.979736 389.64917 Q 370.174072 390.366211 368.707764 390.366211 Q 368.202881 390.366211 367.679199 390.280273 Q 367.155518 390.194336 366.596924 390.022461 L 366.596924 388.932129 Q 367.080322 389.195312 367.595947 389.324219 Q 368.111572 389.453125 368.686279 389.453125 Q 369.615479 389.453125 370.157959 388.964355 Q 370.700439 388.475586 370.700439 387.637695 Q 370.700439 386.799805 370.157959 386.311035 Q 369.615479 385.822266 368.686279 385.822266 Q 368.251221 385.822266 367.818848 385.918945 Q 367.386475 386.015625 366.935303 386.219727 Z M 376.243408 382.905762 Q 375.405518 382.905762 374.983887 383.730225 Q 374.562256 384.554688 374.562256 386.208984 Q 374.562256 387.85791 374.983887 388.682373 Q 375.405518 389.506836 376.243408 389.506836 Q 377.08667 389.506836 377.508301 388.682373 Q 377.929932 387.85791 377.929932 386.208984 Q 377.929932 384.554688 377.508301 383.730225 Q 377.08667 382.905762 376.243408 382.905762 Z M 376.243408 382.046387 Q 377.591553 382.046387 378.303223 383.112549 Q 379.014893 384.178711 379.014893 386.208984 Q 379.014893 388.233887 378.303223 389.300049 Q 377.591553 390.366211 376.243408 390.366211 Q 374.895264 390.366211 374.183594 389.300049 Q 373.471924 388.233887 373.471924 386.208984 Q 373.471924 384.178711 374.183594 383.112549 Q 374.895264 382.046387 376.243408 382.046387 Z" fill="#202124"/><path d="M 461.5 50 L 461.5 360 L 462.5 360 L 462.5 50 Z" fill="#D9DDE3"/><path d="M 447.44165 382.191406 L 451.700928 382.191406 L 451.700928 383.104492 L 448.435303 383.104492 L 448.435303 385.070312 Q 448.671631 384.989746 448.907959 384.949463 Q 449.144287 384.90918 449.380615 384.90918 Q 450.723389 384.90918 451.507568 385.64502 Q 452.291748 386.380859 452.291748 387.637695 Q 452.291748 388.932129 451.486084 389.64917 Q 450.68042 390.366211 449.214111 390.366211 Q 448.709229 390.366211 448.185547 390.280273 Q 447.661865 390.194336 447.103271 390.022461 L 447.103271 388.932129 Q 447.58667 389.195312 448.102295 389.324219 Q 448.61792 389.453125 449.192627 389.453125 Q 450.121826 389.453125 450.664307 388.964355 Q 451.206787 388.475586 451.206787 387.637695 Q 451.206787 386.799805 450.664307 386.311035 Q 450.121826 385.822266 449.192627 385.822266 Q 448.757568 385.822266 448.325195 385.918945 Q 447.892822 386.015625 447.44165 386.219727 Z M 454.429443 388.846191 L 455.562744 388.846191 L 455.562744 390.210449 L 454.429443 390.210449 Z M 460.246338 382.905762 Q 459.408447 382.905762 458.986816 383.730225 Q 458.565186 384.554688 458.565186 386.208984 Q 458.565186 387.85791 458.986816 388.682373 Q 459.408447 389.506836 460.246338 389.506836 Q 461.0896 389.506836 461.51123 388.682373 Q 461.932861 387.85791 461.932861 386.208984 Q 461.932861 384.554688 461.51123 383.730225 Q 461.0896 382.905762 460.246338 382.905762 Z M 460.246338 382.046387 Q 461.594482 382.046387 462.306152 383.112549 Q 463.017822 384.178711 463.017822 386.208984 Q 463.017822 388.233887 462.306152 389.300049 Q 461.594482 390.366211 460.246338 390.366211 Q 458.898193 390.366211 458.186523 389.300049 Q 457.474854 388.233887 457.474854 386.208984 Q 457.474854 384.178711 458.186523 383.112549 Q 458.898193 382.046387 460.246338 382.046387 Z M 467.244873 382.905762 Q 466.406982 382.905762 465.985352 383.730225 Q 465.563721 384.554688 465.563721 386.208984 Q 465.563721 387.85791 465.985352 388.682373 Q 466.406982 389.506836 467.244873 389.506836 Q 468.088135 389.506836 468.509766 388.682373 Q 468.931396 387.85791 468.931396 386.208984 Q 468.931396 384.554688 468.509766 383.730225 Q 468.088135 382.905762 467.244873 382.905762 Z M 467.244873 382.046387 Q 468.593018 382.046387 469.304688 383.112549 Q 470.016357 384.178711 470.016357 386.208984 Q 470.016357 388.233887 469.304688 389.300049 Q 468.593018 390.366211 467.244873 390.366211 Q 465.896729 390.366211 465.185059 389.300049 Q 464.473389 388.233887 464.473389 386.208984 Q 464.473389 384.178711 465.185059 383.112549 Q 465.896729 382.046387 467.244873 382.046387 Z M 474.243408 382.905762 Q 473.405518 382.905762 472.983887 383.730225 Q 472.562256 384.554688 472.562256 386.208984 Q 472.562256 387.85791 472.983887 388.682373 Q 473.405518 389.506836 474.243408 389.506836 Q 475.08667 389.506836 475.508301 388.682373 Q 475.929932 387.85791 475.929932 386.208984 Q 475.929932 384.554688 475.508301 383.730225 Q 475.08667 382.905762 474.243408 382.905762 Z M 474.243408 382.046387 Q 475.591553 382.046387 476.303223 383.112549 Q 477.014893 384.178711 477.014893 386.208984 Q 477.014893 388.233887 476.303223 389.300049 Q 475.591553 390.366211 474.243408 390.366211 Q 472.895264 390.366211 472.183594 389.300049 Q 471.471924 388.233887 471.471924 386.208984 Q 471.471924 384.178711 472.183594 383.112549 Q 472.895264 382.046387 474.243408 382.046387 Z" fill="#202124"/><path d="M 70 360.5 L 462 360.5 L 462 359.5 L 70 359.5 Z" fill="#D9DDE3"/><path d="M 6.364258 369.297363 L 8.136719 369.297363 L 8.136719 363.179688 L 6.208496 363.566406 L 6.208496 362.578125 L 8.125977 362.191406 L 9.210938 362.191406 L 9.210938 369.297363 L 10.983398 369.297363 L 10.983398 370.210449 L 6.364258 370.210449 Z M 13.174805 368.846191 L 14.308105 368.846191 L 14.308105 370.210449 L 13.174805 370.210449 Z M 17.605957 369.297363 L 21.392578 369.297363 L 21.392578 370.210449 L 16.300781 370.210449 L 16.300781 369.297363 Q 16.918457 368.658203 17.984619 367.581299 Q 19.050781 366.504395 19.324707 366.192871 Q 19.845703 365.607422 20.05249 365.201904 Q 20.259277 364.796387 20.259277 364.404297 Q 20.259277 363.765137 19.810791 363.362305 Q 19.362305 362.959473 18.642578 362.959473 Q 18.132324 362.959473 17.565674 363.136719 Q 16.999023 363.313965 16.354492 363.673828 L 16.354492 362.578125 Q 17.009766 362.314941 17.579102 362.180664 Q 18.148438 362.046387 18.621094 362.046387 Q 19.867188 362.046387 20.608398 362.669434 Q 21.349609 363.29248 21.349609 364.334473 Q 21.349609 364.828613 21.164307 365.271729 Q 20.979004 365.714844 20.490234 366.316406 Q 20.355957 366.472168 19.63623 367.216064 Q 18.916504 367.959961 17.605957 369.297363 Z M 25.990234 362.905762 Q 25.152344 362.905762 24.730713 363.730225 Q 24.309082 364.554688 24.309082 366.208984 Q 24.309082 367.85791 24.730713 368.682373 Q 25.152344 369.506836 25.990234 369.506836 Q 26.833496 369.506836 27.255127 368.682373 Q 27.676758 367.85791 27.676758 366.208984 Q 27.676758 364.554688 27.255127 363.730225 Q 26.833496 362.905762 25.990234 362.905762 Z M 25.990234 362.046387 Q 27.338379 362.046387 28.050049 363.112549 Q 28.761719 364.178711 28.761719 366.208984 Q 28.761719 368.233887 28.050049 369.300049 Q 27.338379 370.366211 25.990234 370.366211 Q 24.64209 370.366211 23.93042 369.300049 Q 23.21875 368.233887 23.21875 366.208984 Q 23.21875 364.178711 23.93042 363.112549 Q 24.64209 362.046387 25.990234 362.046387 Z M 32.98877 362.905762 Q 32.150879 362.905762 31.729248 363.730225 Q 31.307617 364.554688 31.307617 366.208984 Q 31.307617 367.85791 31.729248 368.682373 Q 32.150879 369.506836 32.98877 369.506836 Q 33.832031 369.506836 34.253662 368.682373 Q 34.675293 367.85791 34.675293 366.208984 Q 34.675293 364.554688 34.253662 363.730225 Q 33.832031 362.905762 32.98877 362.905762 Z M 32.98877 362.046387 Q 34.336914 362.046387 35.048584 363.112549 Q 35.760254 364.178711 35.760254 366.208984 Q 35.760254 368.233887 35.048584 369.300049 Q 34.336914 370.366211 32.98877 370.366211 Q 31.640625 370.366211 30.928955 369.300049 Q 30.217285 368.233887 30.217285 366.208984 Q 30.217285 364.178711 30.928955 363.112549 Q 31.640625 362.046387 32.98877 362.046387 Z" fill="#202124"/><path d="M 70 283 L 462 283 L 462 282 L 70 282 Z" fill="#D9DDE3"/><path d="M 7.11084 291.797363 L 10.897461 291.797363 L 10.897461 292.710449 L 5.805664 292.710449 L 5.805664 291.797363 Q 6.42334 291.158203 7.489502 290.081299 Q 8.555664 289.004395 8.82959 288.692871 Q 9.350586 288.107422 9.557373 287.701904 Q 9.76416 287.296387 9.76416 286.904297 Q 9.76416 286.265137 9.315674 285.862305 Q 8.867188 285.459473 8.147461 285.459473 Q 7.637207 285.459473 7.070557 285.636719 Q 6.503906 285.813965 5.859375 286.173828 L 5.859375 285.078125 Q 6.514648 284.814941 7.083984 284.680664 Q 7.65332 284.546387 8.125977 284.546387 Q 9.37207 284.546387 10.113281 285.169434 Q 10.854492 285.79248 10.854492 286.834473 Q 10.854492 287.328613 10.669189 287.771729 Q 10.483887 288.214844 9.995117 288.816406 Q 9.86084 288.972168 9.141113 289.716064 Q 8.421387 290.459961 7.11084 291.797363 Z M 13.174805 291.346191 L 14.308105 291.346191 L 14.308105 292.710449 L 13.174805 292.710449 Z M 18.991699 285.405762 Q 18.153809 285.405762 17.732178 286.230225 Q 17.310547 287.054688 17.310547 288.708984 Q 17.310547 290.35791 17.732178 291.182373 Q 18.153809 292.006836 18.991699 292.006836 Q 19.834961 292.006836 20.256592 291.182373 Q 20.678223 290.35791 20.678223 288.708984 Q 20.678223 287.054688 20.256592 286.230225 Q 19.834961 285.405762 18.991699 285.405762 Z M 18.991699 284.546387 Q 20.339844 284.546387 21.051514 285.612549 Q 21.763184 286.678711 21.763184 288.708984 Q 21.763184 290.733887 21.051514 291.800049 Q 20.339844 292.866211 18.991699 292.866211 Q 17.643555 292.866211 16.931885 291.800049 Q 16.220215 290.733887 16.220215 288.708984 Q 16.220215 286.678711 16.931885 285.612549 Q 17.643555 284.546387 18.991699 284.546387 Z M 23.680664 284.691406 L 27.939941 284.691406 L 27.939941 285.604492 L 24.674316 285.604492 L 24.674316 287.570312 Q 24.910645 287.489746 25.146973 287.449463 Q 25.383301 287.40918 25.619629 287.40918 Q 26.962402 287.40918 27.746582 288.14502 Q 28.530762 288.880859 28.530762 290.137695 Q 28.530762 291.432129 27.725098 292.14917 Q 26.919434 292.866211 25.453125 292.866211 Q 24.948242 292.866211 24.424561 292.780273 Q 23.900879 292.694336 23.342285 292.522461 L 23.342285 291.432129 Q 23.825684 291.695312 24.341309 291.824219 Q 24.856934 291.953125 25.431641 291.953125 Q 26.36084 291.953125 26.90332 291.464355 Q 27.445801 290.975586 27.445801 290.137695 Q 27.445801 289.299805 26.90332 288.811035 Q 26.36084 288.322266 25.431641 288.322266 Q 24.996582 288.322266 24.564209 288.418945 Q 24.131836 288.515625 23.680664 288.719727 Z M 32.98877 285.405762 Q 32.150879 285.405762 31.729248 286.230225 Q 31.307617 287.054688 31.307617 288.708984 Q 31.307617 290.35791 31.729248 291.182373 Q 32.150879 292.006836 32.98877 292.006836 Q 33.832031 292.006836 34.253662 291.182373 Q 34.675293 290.35791 34.675293 288.708984 Q 34.675293 287.054688 34.253662 286.230225 Q 33.832031 285.405762 32.98877 285.405762 Z M 32.98877 284.546387 Q 34.336914 284.546387 35.048584 285.612549 Q 35.760254 286.678711 35.760254 288.708984 Q 35.760254 290.733887 35.048584 291.800049 Q 34.336914 292.866211 32.98877 292.866211 Q 31.640625 292.866211 30.928955 291.800049 Q 30.217285 290.733887 30.217285 288.708984 Q 30.217285 286.678711 30.928955 285.612549 Q 31.640625 284.546387 32.98877 284.546387 Z" fill="#202124"/><path d="M 70 205.5 L 462 205.5 L 462 204.5 L 70 204.5 Z" fill="#D9DDE3"/><path d="M 7.11084 214.297363 L 10.897461 214.297363 L 10.897461 215.210449 L 5.805664 215.210449 L 5.805664 214.297363 Q 6.42334 213.658203 7.489502 212.581299 Q 8.555664 211.504395 8.82959 211.192871 Q 9.350586 210.607422 9.557373 210.201904 Q 9.76416 209.796387 9.76416 209.404297 Q 9.76416 208.765137 9.315674 208.362305 Q 8.867188 207.959473 8.147461 207.959473 Q 7.637207 207.959473 7.070557 208.136719 Q 6.503906 208.313965 5.859375 208.673828 L 5.859375 207.578125 Q 6.514648 207.314941 7.083984 207.180664 Q 7.65332 207.046387 8.125977 207.046387 Q 9.37207 207.046387 10.113281 207.669434 Q 10.854492 208.29248 10.854492 209.334473 Q 10.854492 209.828613 10.669189 210.271729 Q 10.483887 210.714844 9.995117 211.316406 Q 9.86084 211.472168 9.141113 212.216064 Q 8.421387 212.959961 7.11084 214.297363 Z M 13.174805 213.846191 L 14.308105 213.846191 L 14.308105 215.210449 L 13.174805 215.210449 Z M 16.703613 215.043945 L 16.703613 214.055664 Q 17.111816 214.249023 17.530762 214.351074 Q 17.949707 214.453125 18.352539 214.453125 Q 19.426758 214.453125 19.993408 213.730713 Q 20.560059 213.008301 20.640625 211.536621 Q 20.329102 211.998535 19.851074 212.245605 Q 19.373047 212.492676 18.792969 212.492676 Q 17.589844 212.492676 16.888916 211.764893 Q 16.187988 211.037109 16.187988 209.774902 Q 16.187988 208.539551 16.918457 207.792969 Q 17.648926 207.046387 18.862793 207.046387 Q 20.253906 207.046387 20.987061 208.112549 Q 21.720215 209.178711 21.720215 211.208984 Q 21.720215 213.10498 20.820557 214.235596 Q 19.920898 215.366211 18.400879 215.366211 Q 17.992676 215.366211 17.57373 215.285645 Q 17.154785 215.205078 16.703613 215.043945 Z M 18.862793 211.644043 Q 19.593262 211.644043 20.020264 211.144531 Q 20.447266 210.64502 20.447266 209.774902 Q 20.447266 208.910156 20.020264 208.407959 Q 19.593262 207.905762 18.862793 207.905762 Q 18.132324 207.905762 17.705322 208.407959 Q 17.27832 208.910156 17.27832 209.774902 Q 17.27832 210.64502 17.705322 211.144531 Q 18.132324 211.644043 18.862793 211.644043 Z M 25.990234 207.905762 Q 25.152344 207.905762 24.730713 208.730225 Q 24.309082 209.554688 24.309082 211.208984 Q 24.309082 212.85791 24.730713 213.682373 Q 25.152344 214.506836 25.990234 214.506836 Q 26.833496 214.506836 27.255127 213.682373 Q 27.676758 212.85791 27.676758 211.208984 Q 27.676758 209.554688 27.255127 208.730225 Q 26.833496 207.905762 25.990234 207.905762 Z M 25.990234 207.046387 Q 27.338379 207.046387 28.050049 208.112549 Q 28.761719 209.178711 28.761719 211.208984 Q 28.761719 213.233887 28.050049 214.300049 Q 27.338379 215.366211 25.990234 215.366211 Q 24.64209 215.366211 23.93042 214.300049 Q 23.21875 213.233887 23.21875 211.208984 Q 23.21875 209.178711 23.93042 208.112549 Q 24.64209 207.046387 25.990234 207.046387 Z M 32.98877 207.905762 Q 32.150879 207.905762 31.729248 208.730225 Q 31.307617 209.554688 31.307617 211.208984 Q 31.307617 212.85791 31.729248 213.682373 Q 32.150879 214.506836 32.98877 214.506836 Q 33.832031 214.506836 34.253662 213.682373 Q 34.675293 212.85791 34.675293 211.208984 Q 34.675293 209.554688 34.253662 208.730225 Q 33.832031 207.905762 32.98877 207.905762 Z M 32.98877 207.046387 Q 34.336914 207.046387 35.048584 208.112549 Q 35.760254 209.178711 35.760254 211.208984 Q 35.760254 213.233887 35.048584 214.300049 Q 34.336914 215.366211 32.98877 215.366211 Q 31.640625 215.366211 30.928955 214.300049 Q 30.217285 213.233887 30.217285 211.208984 Q 30.217285 209.178711 30.928955 208.112549 Q 31.640625 207.046387 32.98877 207.046387 Z" fill="#202124"/><path d="M 70 128 L 462 128 L 462 127 L 70 127 Z" fill="#D9DDE3"/><path d="M 9.463379 133.386719 Q 10.242188 133.553223 10.679932 134.07959 Q 11.117676 134.605957 11.117676 135.379395 Q 11.117676 136.566406 10.30127 137.216309 Q 9.484863 137.866211 7.980957 137.866211 Q 7.476074 137.866211 6.94165 137.766846 Q 6.407227 137.66748 5.837891 137.46875 L 5.837891 136.421387 Q 6.289062 136.68457 6.826172 136.818848 Q 7.363281 136.953125 7.94873 136.953125 Q 8.969238 136.953125 9.503662 136.550293 Q 10.038086 136.147461 10.038086 135.379395 Q 10.038086 134.67041 9.54126 134.270264 Q 9.044434 133.870117 8.158203 133.870117 L 7.223633 133.870117 L 7.223633 132.978516 L 8.201172 132.978516 Q 9.001465 132.978516 9.425781 132.658936 Q 9.850098 132.339355 9.850098 131.737793 Q 9.850098 131.120117 9.412354 130.789795 Q 8.974609 130.459473 8.158203 130.459473 Q 7.712402 130.459473 7.202148 130.556152 Q 6.691895 130.652832 6.07959 130.856934 L 6.07959 129.890137 Q 6.697266 129.718262 7.237061 129.632324 Q 7.776855 129.546387 8.254883 129.546387 Q 9.490234 129.546387 10.209961 130.107666 Q 10.929688 130.668945 10.929688 131.625 Q 10.929688 132.291016 10.54834 132.750244 Q 10.166992 133.209473 9.463379 133.386719 Z M 13.174805 136.346191 L 14.308105 136.346191 L 14.308105 137.710449 L 13.174805 137.710449 Z M 16.397461 129.691406 L 21.553711 129.691406 L 21.553711 130.15332 L 18.642578 137.710449 L 17.509277 137.710449 L 20.248535 130.604492 L 16.397461 130.604492 Z M 23.680664 129.691406 L 27.939941 129.691406 L 27.939941 130.604492 L 24.674316 130.604492 L 24.674316 132.570312 Q 24.910645 132.489746 25.146973 132.449463 Q 25.383301 132.40918 25.619629 132.40918 Q 26.962402 132.40918 27.746582 133.14502 Q 28.530762 133.880859 28.530762 135.137695 Q 28.530762 136.432129 27.725098 137.14917 Q 26.919434 137.866211 25.453125 137.866211 Q 24.948242 137.866211 24.424561 137.780273 Q 23.900879 137.694336 23.342285 137.522461 L 23.342285 136.432129 Q 23.825684 136.695312 24.341309 136.824219 Q 24.856934 136.953125 25.431641 136.953125 Q 26.36084 136.953125 26.90332 136.464355 Q 27.445801 135.975586 27.445801 135.137695 Q 27.445801 134.299805 26.90332 133.811035 Q 26.36084 133.322266 25.431641 133.322266 Q 24.996582 133.322266 24.564209 133.418945 Q 24.131836 133.515625 23.680664 133.719727 Z M 32.98877 130.405762 Q 32.150879 130.405762 31.729248 131.230225 Q 31.307617 132.054688 31.307617 133.708984 Q 31.307617 135.35791 31.729248 136.182373 Q 32.150879 137.006836 32.98877 137.006836 Q 33.832031 137.006836 34.253662 136.182373 Q 34.675293 135.35791 34.675293 133.708984 Q 34.675293 132.054688 34.253662 131.230225 Q 33.832031 130.405762 32.98877 130.405762 Z M 32.98877 129.546387 Q 34.336914 129.546387 35.048584 130.612549 Q 35.760254 131.678711 35.760254 133.708984 Q 35.760254 135.733887 35.048584 136.800049 Q 34.336914 137.866211 32.98877 137.866211 Q 31.640625 137.866211 30.928955 136.800049 Q 30.217285 135.733887 30.217285 133.708984 Q 30.217285 131.678711 30.928955 130.612549 Q 31.640625 129.546387 32.98877 129.546387 Z" fill="#202124"/><path d="M 70 50.5 L 462 50.5 L 462 49.5 L 70 49.5 Z" fill="#D9DDE3"/><path d="M 9.157227 53.136719 L 6.417969 57.41748 L 9.157227 57.41748 Z M 8.872559 52.191406 L 10.236816 52.191406 L 10.236816 57.41748 L 11.380859 57.41748 L 11.380859 58.319824 L 10.236816 58.319824 L 10.236816 60.210449 L 9.157227 60.210449 L 9.157227 58.319824 L 5.537109 58.319824 L 5.537109 57.272461 Z M 13.174805 58.846191 L 14.308105 58.846191 L 14.308105 60.210449 L 13.174805 60.210449 Z M 19.125977 55.768555 Q 18.395508 55.768555 17.968506 56.268066 Q 17.541504 56.767578 17.541504 57.637695 Q 17.541504 58.502441 17.968506 59.004639 Q 18.395508 59.506836 19.125977 59.506836 Q 19.856445 59.506836 20.283447 59.004639 Q 20.710449 58.502441 20.710449 57.637695 Q 20.710449 56.767578 20.283447 56.268066 Q 19.856445 55.768555 19.125977 55.768555 Z M 21.279785 52.368652 L 21.279785 53.356934 Q 20.871582 53.163574 20.455322 53.061523 Q 20.039062 52.959473 19.630859 52.959473 Q 18.556641 52.959473 17.98999 53.68457 Q 17.42334 54.409668 17.342773 55.875977 Q 17.659668 55.408691 18.137695 55.158936 Q 18.615723 54.90918 19.19043 54.90918 Q 20.398926 54.90918 21.099854 55.642334 Q 21.800781 56.375488 21.800781 57.637695 Q 21.800781 58.873047 21.070312 59.619629 Q 20.339844 60.366211 19.125977 60.366211 Q 17.734863 60.366211 16.999023 59.300049 Q 16.263184 58.233887 16.263184 56.208984 Q 16.263184 54.307617 17.165527 53.177002 Q 18.067871 52.046387 19.587891 52.046387 Q 19.996094 52.046387 20.412354 52.126953 Q 20.828613 52.20752 21.279785 52.368652 Z M 25.990234 52.905762 Q 25.152344 52.905762 24.730713 53.730225 Q 24.309082 54.554688 24.309082 56.208984 Q 24.309082 57.85791 24.730713 58.682373 Q 25.152344 59.506836 25.990234 59.506836 Q 26.833496 59.506836 27.255127 58.682373 Q 27.676758 57.85791 27.676758 56.208984 Q 27.676758 54.554688 27.255127 53.730225 Q 26.833496 52.905762 25.990234 52.905762 Z M 25.990234 52.046387 Q 27.338379 52.046387 28.050049 53.112549 Q 28.761719 54.178711 28.761719 56.208984 Q 28.761719 58.233887 28.050049 59.300049 Q 27.338379 60.366211 25.990234 60.366211 Q 24.64209 60.366211 23.93042 59.300049 Q 23.21875 58.233887 23.21875 56.208984 Q 23.21875 54.178711 23.93042 53.112549 Q 24.64209 52.046387 25.990234 52.046387 Z M 32.98877 52.905762 Q 32.150879 52.905762 31.729248 53.730225 Q 31.307617 54.554688 31.307617 56.208984 Q 31.307617 57.85791 31.729248 58.682373 Q 32.150879 59.506836 32.98877 59.506836 Q 33.832031 59.506836 34.253662 58.682373 Q 34.675293 57.85791 34.675293 56.208984 Q 34.675293 54.554688 34.253662 53.730225 Q 33.832031 52.905762 32.98877 52.905762 Z M 32.98877 52.046387 Q 34.336914 52.046387 35.048584 53.112549 Q 35.760254 54.178711 35.760254 56.208984 Q 35.760254 58.233887 35.048584 59.300049 Q 34.336914 60.366211 32.98877 60.366211 Q 31.640625 60.366211 30.928955 59.300049 Q 30.217285 58.233887 30.217285 56.208984 Q 30.217285 54.178711 30.928955 53.112549 Q 31.640625 52.046387 32.98877 52.046387 Z" fill="#202124"/><path d="M 71.564453 28.585938 L 73.348633 28.585938 L 73.348633 36.557617 Q 73.348633 38.666992 74.113281 39.594238 Q 74.87793 40.521484 76.591797 40.521484 Q 78.296875 40.521484 79.061523 39.594238 Q 79.826172 38.666992 79.826172 36.557617 L 79.826172 28.585938 L 81.610352 28.585938 L 81.610352 36.777344 Q 81.610352 39.34375 80.340332 40.65332 Q 79.070312 41.962891 76.591797 41.962891 Q 74.104492 41.962891 72.834473 40.65332 Q 71.564453 39.34375 71.564453 36.777344 Z M 93.053711 35.766602 L 93.053711 41.708008 L 91.436523 41.708008 L 91.436523 35.819336 Q 91.436523 34.421875 90.891602 33.727539 Q 90.34668 33.033203 89.256836 33.033203 Q 87.947266 33.033203 87.191406 33.868164 Q 86.435547 34.703125 86.435547 36.144531 L 86.435547 41.708008 L 84.80957 41.708008 L 84.80957 31.864258 L 86.435547 31.864258 L 86.435547 33.393555 Q 87.015625 32.505859 87.802246 32.066406 Q 88.588867 31.626953 89.617188 31.626953 Q 91.313477 31.626953 92.183594 32.677246 Q 93.053711 33.727539 93.053711 35.766602 Z M 96.279297 31.864258 L 97.896484 31.864258 L 97.896484 41.708008 L 96.279297 41.708008 Z M 96.279297 28.032227 L 97.896484 28.032227 L 97.896484 30.080078 L 96.279297 30.080078 Z M 103.125977 30.044922 L 103.125977 34.975586 L 105.358398 34.975586 Q 106.597656 34.975586 107.274414 34.333984 Q 107.951172 33.692383 107.951172 32.505859 Q 107.951172 31.328125 107.274414 30.686523 Q 106.597656 30.044922 105.358398 30.044922 Z M 101.350586 28.585938 L 105.358398 28.585938 Q 107.564453 28.585938 108.693848 29.583496 Q 109.823242 30.581055 109.823242 32.505859 Q 109.823242 34.448242 108.693848 35.441406 Q 107.564453 36.43457 105.358398 36.43457 L 103.125977 36.43457 L 103.125977 41.708008 L 101.350586 41.708008 Z M 112.134766 28.032227 L 113.751953 28.032227 L 113.751953 41.708008 L 112.134766 41.708008 Z M 120.950195 32.998047 Q 119.649414 32.998047 118.893555 34.013184 Q 118.137695 35.02832 118.137695 36.794922 Q 118.137695 38.561523 118.88916 39.57666 Q 119.640625 40.591797 120.950195 40.591797 Q 122.242188 40.591797 122.998047 39.572266 Q 123.753906 38.552734 123.753906 36.794922 Q 123.753906 35.045898 122.998047 34.021973 Q 122.242188 32.998047 120.950195 32.998047 Z M 120.950195 31.626953 Q 123.05957 31.626953 124.263672 32.998047 Q 125.467773 34.369141 125.467773 36.794922 Q 125.467773 39.211914 124.263672 40.587402 Q 123.05957 41.962891 120.950195 41.962891 Q 118.832031 41.962891 117.632324 40.587402 Q 116.432617 39.211914 116.432617 36.794922 Q 116.432617 34.369141 117.632324 32.998047 Q 118.832031 31.626953 120.950195 31.626953 Z M 129.748047 29.069336 L 129.748047 31.864258 L 133.079102 31.864258 L 133.079102 33.121094 L 129.748047 33.121094 L 129.748047 38.464844 Q 129.748047 39.668945 130.077637 40.011719 Q 130.407227 40.354492 131.417969 40.354492 L 133.079102 40.354492 L 133.079102 41.708008 L 131.417969 41.708008 Q 129.545898 41.708008 128.833984 41.009277 Q 128.12207 40.310547 128.12207 38.464844 L 128.12207 33.121094 L 126.935547 33.121094 L 126.935547 31.864258 L 128.12207 31.864258 L 128.12207 29.069336 Z M 142.773438 30.044922 L 142.773438 34.975586 L 145.005859 34.975586 Q 146.245117 34.975586 146.921875 34.333984 Q 147.598633 33.692383 147.598633 32.505859 Q 147.598633 31.328125 146.921875 30.686523 Q 146.245117 30.044922 145.005859 30.044922 Z M 140.998047 28.585938 L 145.005859 28.585938 Q 147.211914 28.585938 148.341309 29.583496 Q 149.470703 30.581055 149.470703 32.505859 Q 149.470703 34.448242 148.341309 35.441406 Q 147.211914 36.43457 145.005859 36.43457 L 142.773438 36.43457 L 142.773438 41.708008 L 140.998047 41.708008 Z M 155.87793 42.62207 Q 155.192383 44.379883 154.541992 44.916016 Q 153.891602 45.452148 152.801758 45.452148 L 151.509766 45.452148 L 151.509766 44.098633 L 152.458984 44.098633 Q 153.126953 44.098633 153.496094 43.782227 Q 153.865234 43.46582 154.313477 42.288086 L 154.603516 41.549805 L 150.62207 31.864258 L 152.335938 31.864258 L 155.412109 39.563477 L 158.488281 31.864258 L 160.202148 31.864258 Z M 164.03418 29.069336 L 164.03418 31.864258 L 167.365234 31.864258 L 167.365234 33.121094 L 164.03418 33.121094 L 164.03418 38.464844 Q 164.03418 39.668945 164.36377 40.011719 Q 164.693359 40.354492 165.704102 40.354492 L 167.365234 40.354492 L 167.365234 41.708008 L 165.704102 41.708008 Q 163.832031 41.708008 163.120117 41.009277 Q 162.408203 40.310547 162.408203 38.464844 L 162.408203 33.121094 L 161.22168 33.121094 L 161.22168 31.864258 L 162.408203 31.864258 L 162.408203 29.069336 Z M 177.674805 35.766602 L 177.674805 41.708008 L 176.057617 41.708008 L 176.057617 35.819336 Q 176.057617 34.421875 175.512695 33.727539 Q 174.967773 33.033203 173.87793 33.033203 Q 172.568359 33.033203 171.8125 33.868164 Q 171.056641 34.703125 171.056641 36.144531 L 171.056641 41.708008 L 169.430664 41.708008 L 169.430664 28.032227 L 171.056641 28.032227 L 171.056641 33.393555 Q 171.636719 32.505859 172.42334 32.066406 Q 173.209961 31.626953 174.238281 31.626953 Q 175.93457 31.626953 176.804688 32.677246 Q 177.674805 33.727539 177.674805 35.766602 Z M 184.714844 32.998047 Q 183.414062 32.998047 182.658203 34.013184 Q 181.902344 35.02832 181.902344 36.794922 Q 181.902344 38.561523 182.653809 39.57666 Q 183.405273 40.591797 184.714844 40.591797 Q 186.006836 40.591797 186.762695 39.572266 Q 187.518555 38.552734 187.518555 36.794922 Q 187.518555 35.045898 186.762695 34.021973 Q 186.006836 32.998047 184.714844 32.998047 Z M 184.714844 31.626953 Q 186.824219 31.626953 188.02832 32.998047 Q 189.232422 34.369141 189.232422 36.794922 Q 189.232422 39.211914 188.02832 40.587402 Q 186.824219 41.962891 184.714844 41.962891 Q 182.59668 41.962891 181.396973 40.587402 Q 180.197266 39.211914 180.197266 36.794922 Q 180.197266 34.369141 181.396973 32.998047 Q 182.59668 31.626953 184.714844 31.626953 Z M 200.095703 35.766602 L 200.095703 41.708008 L 198.478516 41.708008 L 198.478516 35.819336 Q 198.478516 34.421875 197.933594 33.727539 Q 197.388672 33.033203 196.298828 33.033203 Q 194.989258 33.033203 194.233398 33.868164 Q 193.477539 34.703125 193.477539 36.144531 L 193.477539 41.708008 L 191.851562 41.708008 L 191.851562 31.864258 L 193.477539 31.864258 L 193.477539 33.393555 Q 194.057617 32.505859 194.844238 32.066406 Q 195.630859 31.626953 196.65918 31.626953 Q 198.355469 31.626953 199.225586 32.677246 Q 200.095703 33.727539 200.095703 35.766602 Z M 216.109375 36.794922 Q 216.109375 35.010742 215.375488 33.995605 Q 214.641602 32.980469 213.358398 32.980469 Q 212.075195 32.980469 211.341309 33.995605 Q 210.607422 35.010742 210.607422 36.794922 Q 210.607422 38.579102 211.341309 39.594238 Q 212.075195 40.609375 213.358398 40.609375 Q 214.641602 40.609375 215.375488 39.594238 Q 216.109375 38.579102 216.109375 36.794922 Z M 210.607422 33.358398 Q 211.117188 32.479492 211.89502 32.053223 Q 212.672852 31.626953 213.753906 31.626953 Q 215.546875 31.626953 216.66748 33.050781 Q 217.788086 34.474609 217.788086 36.794922 Q 217.788086 39.115234 216.66748 40.539062 Q 215.546875 41.962891 213.753906 41.962891 Q 212.672852 41.962891 211.89502 41.536621 Q 211.117188 41.110352 210.607422 40.231445 L 210.607422 41.708008 L 208.981445 41.708008 L 208.981445 28.032227 L 210.607422 28.032227 Z M 220.46875 31.864258 L 222.085938 31.864258 L 222.085938 41.708008 L 220.46875 41.708008 Z M 220.46875 28.032227 L 222.085938 28.032227 L 222.085938 30.080078 L 220.46875 30.080078 Z M 233.652344 35.766602 L 233.652344 41.708008 L 232.035156 41.708008 L 232.035156 35.819336 Q 232.035156 34.421875 231.490234 33.727539 Q 230.945312 33.033203 229.855469 33.033203 Q 228.545898 33.033203 227.790039 33.868164 Q 227.03418 34.703125 227.03418 36.144531 L 227.03418 41.708008 L 225.408203 41.708008 L 225.408203 31.864258 L 227.03418 31.864258 L 227.03418 33.393555 Q 227.614258 32.505859 228.400879 32.066406 Q 229.1875 31.626953 230.21582 31.626953 Q 231.912109 31.626953 232.782227 32.677246 Q 233.652344 33.727539 233.652344 35.766602 Z M 243.355469 33.358398 L 243.355469 28.032227 L 244.972656 28.032227 L 244.972656 41.708008 L 243.355469 41.708008 L 243.355469 40.231445 Q 242.845703 41.110352 242.067871 41.536621 Q 241.290039 41.962891 240.200195 41.962891 Q 238.416016 41.962891 237.29541 40.539062 Q 236.174805 39.115234 236.174805 36.794922 Q 236.174805 34.474609 237.29541 33.050781 Q 238.416016 31.626953 240.200195 31.626953 Q 241.290039 31.626953 242.067871 32.053223 Q 242.845703 32.479492 243.355469 33.358398 Z M 237.844727 36.794922 Q 237.844727 38.579102 238.578613 39.594238 Q 239.3125 40.609375 240.595703 40.609375 Q 241.878906 40.609375 242.617188 39.594238 Q 243.355469 38.579102 243.355469 36.794922 Q 243.355469 35.010742 242.617188 33.995605 Q 241.878906 32.980469 240.595703 32.980469 Q 239.3125 32.980469 238.578613 33.995605 Q 237.844727 35.010742 237.844727 36.794922 Z M 248.303711 31.864258 L 249.920898 31.864258 L 249.920898 41.708008 L 248.303711 41.708008 Z M 248.303711 28.032227 L 249.920898 28.032227 L 249.920898 30.080078 L 248.303711 30.080078 Z M 261.487305 35.766602 L 261.487305 41.708008 L 259.870117 41.708008 L 259.870117 35.819336 Q 259.870117 34.421875 259.325195 33.727539 Q 258.780273 33.033203 257.69043 33.033203 Q 256.380859 33.033203 255.625 33.868164 Q 254.869141 34.703125 254.869141 36.144531 L 254.869141 41.708008 L 253.243164 41.708008 L 253.243164 31.864258 L 254.869141 31.864258 L 254.869141 33.393555 Q 255.449219 32.505859 256.23584 32.066406 Q 257.022461 31.626953 258.050781 31.626953 Q 259.74707 31.626953 260.617188 32.677246 Q 261.487305 33.727539 261.487305 35.766602 Z M 271.19043 36.671875 Q 271.19043 34.914062 270.465332 33.947266 Q 269.740234 32.980469 268.430664 32.980469 Q 267.129883 32.980469 266.404785 33.947266 Q 265.679688 34.914062 265.679688 36.671875 Q 265.679688 38.420898 266.404785 39.387695 Q 267.129883 40.354492 268.430664 40.354492 Q 269.740234 40.354492 270.465332 39.387695 Q 271.19043 38.420898 271.19043 36.671875 Z M 272.807617 40.486328 Q 272.807617 43 271.691406 44.226074 Q 270.575195 45.452148 268.272461 45.452148 Q 267.419922 45.452148 266.664062 45.324707 Q 265.908203 45.197266 265.196289 44.933594 L 265.196289 43.360352 Q 265.908203 43.74707 266.602539 43.931641 Q 267.296875 44.116211 268.017578 44.116211 Q 269.608398 44.116211 270.399414 43.285645 Q 271.19043 42.455078 271.19043 40.776367 L 271.19043 39.976562 Q 270.689453 40.84668 269.907227 41.277344 Q 269.125 41.708008 268.035156 41.708008 Q 266.224609 41.708008 265.117188 40.328125 Q 264.009766 38.948242 264.009766 36.671875 Q 264.009766 34.386719 265.117188 33.006836 Q 266.224609 31.626953 268.035156 31.626953 Q 269.125 31.626953 269.907227 32.057617 Q 270.689453 32.488281 271.19043 33.358398 L 271.19043 31.864258 L 272.807617 31.864258 Z" fill="#202124"/><path d="M 70.947792 360.814972 L 80.727539 349.441467 L 78.831955 347.811523 L 69.052208 359.185028 Z M 85.617409 343.75473 L 95.397156 332.381195 L 93.501572 330.751251 L 83.721825 342.124786 Z M 100.287025 326.694458 L 110.066765 315.320953 L 108.171181 313.69101 L 98.391441 325.064514 Z M 114.956642 309.634186 L 124.736382 298.260712 L 122.840797 296.630768 L 113.061058 308.004242 Z M 129.626251 292.573944 L 139.406006 281.200439 L 137.510437 279.570496 L 127.730675 290.944 Z M 144.295883 275.513702 L 149.347794 269.638489 L 147.452194 268.008545 L 142.400284 273.883759 Z M 147.872772 269.956879 L 154.447647 273.015411 L 155.50209 270.748688 L 148.927216 267.690155 Z M 147.452194 268.008545 L 148.069183 267.291016 L 148.927216 267.690155 Z M 161.247864 276.178802 L 174.848312 282.505554 L 175.902786 280.238831 L 162.302338 273.912079 Z M 181.648544 285.668915 L 195.248993 291.995667 L 196.303467 289.728943 L 182.703018 283.402191 Z M 202.049225 295.159027 L 215.649673 301.485779 L 216.704147 299.219055 L 203.103699 292.892303 Z M 222.449905 304.649139 L 226.272766 306.42749 L 227.32724 304.160767 L 223.504379 302.382416 Z M 227.938812 305.809509 L 232.38501 295.985016 L 230.107391 294.954254 L 225.661194 304.778748 Z M 226.272766 306.42749 L 227.41803 306.960266 L 227.938812 305.809509 Z M 235.47731 289.152191 L 241.661896 275.486511 L 239.384277 274.45575 L 233.199692 288.121429 Z M 244.754196 268.653656 L 250.938797 254.987976 L 248.661179 253.957214 L 242.476578 267.622894 Z M 254.031082 248.155151 L 260.215668 234.489471 L 257.93808 233.45871 L 251.753464 247.12439 Z M 263.307953 227.656616 L 269.492554 213.990936 L 267.214966 212.960175 L 261.030365 226.625854 Z M 272.584839 207.158096 L 278.76944 193.492416 L 276.491852 192.461655 L 270.307251 206.127335 Z M 281.861725 186.659576 L 288.046326 172.993881 L 285.768738 171.96312 L 279.584137 185.628815 Z M 291.138611 166.161041 L 297.323212 152.495361 L 295.045624 151.4646 L 288.861023 165.13028 Z M 300.415497 145.662521 L 306.338806 132.574203 L 304.061218 131.543442 L 298.137909 144.63176 Z M 304.484711 133.083939 L 305.004425 133.446579 L 306.435028 131.396347 L 305.915314 131.033707 Z M 304.061218 131.543442 L 304.681519 130.172806 L 305.915314 131.033707 Z M 311.15506 137.738358 L 323.45636 146.32196 L 324.886963 144.271759 L 312.585663 135.688156 Z M 329.607025 150.61377 L 341.908325 159.197357 L 343.338928 157.147125 L 331.037628 148.563538 Z M 348.05896 163.489151 L 360.36026 172.072739 L 361.790863 170.022507 L 349.489563 161.438919 Z M 366.510925 176.364517 L 378.812225 184.94812 L 380.242828 182.897919 L 367.941528 174.314316 Z M 385.944702 185.187897 L 393.404633 172.174454 L 391.235748 170.931137 L 383.775818 183.94458 Z M 397.134583 165.66774 L 404.594513 152.654297 L 402.425629 151.41098 L 394.965698 164.424423 Z M 408.324463 146.147568 L 415.784393 133.13414 L 413.615509 131.890823 L 406.155579 144.904251 Z M 419.514343 126.627411 L 426.974274 113.613976 L 424.805389 112.370659 L 417.345459 125.384094 Z M 430.704224 107.107254 L 438.164154 94.093811 L 435.99527 92.850494 L 428.535339 105.863937 Z M 441.894104 87.58709 L 449.354034 74.573647 L 447.18515 73.33033 L 439.72522 86.343773 Z M 453.083984 68.066925 L 460.543915 55.053486 L 458.375031 53.810162 L 450.9151 66.823608 Z" fill="#267A5E" data-uplot-id="16490336266968443936"/><path d="M 143.399994 265.490173 L 145.066666 263.823517 L 148.399994 267.15686 L 151.733322 263.823517 L 153.399994 265.490173 L 150.066666 268.823517 L 153.399994 272.15686 L 151.733322 273.823517 L 148.399994 270.490173 L 145.066666 273.823517 L 143.399994 272.15686 L 146.733322 268.823517 Z" fill="#DC7C28" data-uplot-id="10905525725756348110"/><path d="M 221.800003 301.960785 L 223.466675 300.294128 L 226.800003 303.627472 L 230.133331 300.294128 L 231.800003 301.960785 L 228.466675 305.294128 L 231.800003 308.627472 L 230.133331 310.294128 L 226.800003 306.960785 L 223.466675 310.294128 L 221.800003 308.627472 L 225.133331 305.294128 Z" fill="#DC7C28" data-uplot-id="10451216379200822465"/><path d="M 300.200012 128.725494 L 301.866669 127.058823 L 305.200012 130.392151 L 308.533356 127.058823 L 310.200012 128.725494 L 306.866669 132.058823 L 310.200012 135.392151 L 308.533356 137.058823 L 305.200012 133.725494 L 301.866669 137.058823 L 300.200012 135.392151 L 303.533356 132.058823 Z" fill="#DC7C28" data-uplot-id="13935469284678123066"/><path d="M 378.600006 183.431381 L 380.266663 181.764709 L 383.600006 185.098038 L 386.93335 181.764709 L 388.600006 183.431381 L 385.266663 186.764709 L 388.600006 190.098038 L 386.93335 191.764709 L 383.600006 188.431381 L 380.266663 191.764709 L 378.600006 190.098038 L 381.93335 186.764709 Z" fill="#DC7C28" data-uplot-id="1635312068028924514"/><path d="M 508 0 L 1000 0 L 1000 420 L 508 420 Z" fill="#FFFFFF"/><path d="M 577.5 50 L 577.5 360 L 578.5 360 L 578.5 50 Z" fill="#D9DDE3"/><path d="M 565.751221 382.905762 Q 564.91333 382.905762 564.491699 383.730225 Q 564.070068 384.554688 564.070068 386.208984 Q 564.070068 387.85791 564.491699 388.682373 Q 564.91333 389.506836 565.751221 389.506836 Q 566.594482 389.506836 567.016113 388.682373 Q 567.437744 387.85791 567.437744 386.208984 Q 567.437744 384.554688 567.016113 383.730225 Q 566.594482 382.905762 565.751221 382.905762 Z M 565.751221 382.046387 Q 567.099365 382.046387 567.811035 383.112549 Q 568.522705 384.178711 568.522705 386.208984 Q 568.522705 388.233887 567.811035 389.300049 Q 567.099365 390.366211 565.751221 390.366211 Q 564.403076 390.366211 563.691406 389.300049 Q 562.979736 388.233887 562.979736 386.208984 Q 562.979736 384.178711 563.691406 383.112549 Q 564.403076 382.046387 565.751221 382.046387 Z M 570.429443 388.846191 L 571.562744 388.846191 L 571.562744 390.210449 L 570.429443 390.210449 Z M 576.246338 382.905762 Q 575.408447 382.905762 574.986816 383.730225 Q 574.565186 384.554688 574.565186 386.208984 Q 574.565186 387.85791 574.986816 388.682373 Q 575.408447 389.506836 576.246338 389.506836 Q 577.0896 389.506836 577.51123 388.682373 Q 577.932861 387.85791 577.932861 386.208984 Q 577.932861 384.554688 577.51123 383.730225 Q 577.0896 382.905762 576.246338 382.905762 Z M 576.246338 382.046387 Q 577.594482 382.046387 578.306152 383.112549 Q 579.017822 384.178711 579.017822 386.208984 Q 579.017822 388.233887 578.306152 389.300049 Q 577.594482 390.366211 576.246338 390.366211 Q 574.898193 390.366211 574.186523 389.300049 Q 573.474854 388.233887 573.474854 386.208984 Q 573.474854 384.178711 574.186523 383.112549 Q 574.898193 382.046387 576.246338 382.046387 Z M 583.244873 382.905762 Q 582.406982 382.905762 581.985352 383.730225 Q 581.563721 384.554688 581.563721 386.208984 Q 581.563721 387.85791 581.985352 388.682373 Q 582.406982 389.506836 583.244873 389.506836 Q 584.088135 389.506836 584.509766 388.682373 Q 584.931396 387.85791 584.931396 386.208984 Q 584.931396 384.554688 584.509766 383.730225 Q 584.088135 382.905762 583.244873 382.905762 Z M 583.244873 382.046387 Q 584.593018 382.046387 585.304688 383.112549 Q 586.016357 384.178711 586.016357 386.208984 Q 586.016357 388.233887 585.304688 389.300049 Q 584.593018 390.366211 583.244873 390.366211 Q 581.896729 390.366211 581.185059 389.300049 Q 580.473389 388.233887 580.473389 386.208984 Q 580.473389 384.178711 581.185059 383.112549 Q 581.896729 382.046387 583.244873 382.046387 Z M 590.243408 382.905762 Q 589.405518 382.905762 588.983887 383.730225 Q 588.562256 384.554688 588.562256 386.208984 Q 588.562256 387.85791 588.983887 388.682373 Q 589.405518 389.506836 590.243408 389.506836 Q 591.08667 389.506836 591.508301 388.682373 Q 591.929932 387.85791 591.929932 386.208984 Q 591.929932 384.554688 591.508301 383.730225 Q 591.08667 382.905762 590.243408 382.905762 Z M 590.243408 382.046387 Q 591.591553 382.046387 592.303223 383.112549 Q 593.014893 384.178711 593.014893 386.208984 Q 593.014893 388.233887 592.303223 389.300049 Q 591.591553 390.366211 590.243408 390.366211 Q 588.895264 390.366211 588.183594 389.300049 Q 587.471924 388.233887 587.471924 386.208984 Q 587.471924 384.178711 588.183594 383.112549 Q 588.895264 382.046387 590.243408 382.046387 Z" fill="#202124"/><path d="M 675.5 50 L 675.5 360 L 676.5 360 L 676.5 50 Z" fill="#D9DDE3"/><path d="M 661.618896 389.297363 L 663.391357 389.297363 L 663.391357 383.179688 L 661.463135 383.566406 L 661.463135 382.578125 L 663.380615 382.191406 L 664.465576 382.191406 L 664.465576 389.297363 L 666.238037 389.297363 L 666.238037 390.210449 L 661.618896 390.210449 Z M 668.429443 388.846191 L 669.562744 388.846191 L 669.562744 390.210449 L 668.429443 390.210449 Z M 672.860596 389.297363 L 676.647217 389.297363 L 676.647217 390.210449 L 671.55542 390.210449 L 671.55542 389.297363 Q 672.173096 388.658203 673.239258 387.581299 Q 674.30542 386.504395 674.579346 386.192871 Q 675.100342 385.607422 675.307129 385.201904 Q 675.513916 384.796387 675.513916 384.404297 Q 675.513916 383.765137 675.06543 383.362305 Q 674.616943 382.959473 673.897217 382.959473 Q 673.386963 382.959473 672.820312 383.136719 Q 672.253662 383.313965 671.609131 383.673828 L 671.609131 382.578125 Q 672.264404 382.314941 672.83374 382.180664 Q 673.403076 382.046387 673.875732 382.046387 Q 675.121826 382.046387 675.863037 382.669434 Q 676.604248 383.29248 676.604248 384.334473 Q 676.604248 384.828613 676.418945 385.271729 Q 676.233643 385.714844 675.744873 386.316406 Q 675.610596 386.472168 674.890869 387.216064 Q 674.171143 387.959961 672.860596 389.297363 Z M 678.935303 382.191406 L 683.19458 382.191406 L 683.19458 383.104492 L 679.928955 383.104492 L 679.928955 385.070312 Q 680.165283 384.989746 680.401611 384.949463 Q 680.637939 384.90918 680.874268 384.90918 Q 682.217041 384.90918 683.001221 385.64502 Q 683.7854 386.380859 683.7854 387.637695 Q 683.7854 388.932129 682.979736 389.64917 Q 682.174072 390.366211 680.707764 390.366211 Q 680.202881 390.366211 679.679199 390.280273 Q 679.155518 390.194336 678.596924 390.022461 L 678.596924 388.932129 Q 679.080322 389.195312 679.595947 389.324219 Q 680.111572 389.453125 680.686279 389.453125 Q 681.615479 389.453125 682.157959 388.964355 Q 682.700439 388.475586 682.700439 387.637695 Q 682.700439 386.799805 682.157959 386.311035 Q 681.615479 385.822266 680.686279 385.822266 Q 680.251221 385.822266 679.818848 385.918945 Q 679.386475 386.015625 678.935303 386.219727 Z M 688.243408 382.905762 Q 687.405518 382.905762 686.983887 383.730225 Q 686.562256 384.554688 686.562256 386.208984 Q 686.562256 387.85791 686.983887 388.682373 Q 687.405518 389.506836 688.243408 389.506836 Q 689.08667 389.506836 689.508301 388.682373 Q 689.929932 387.85791 689.929932 386.208984 Q 689.929932 384.554688 689.508301 383.730225 Q 689.08667 382.905762 688.243408 382.905762 Z M 688.243408 382.046387 Q 689.591553 382.046387 690.303223 383.112549 Q 691.014893 384.178711 691.014893 386.208984 Q 691.014893 388.233887 690.303223 389.300049 Q 689.591553 390.366211 688.243408 390.366211 Q 686.895264 390.366211 686.183594 389.300049 Q 685.471924 388.233887 685.471924 386.208984 Q 685.471924 384.178711 686.183594 383.112549 Q 686.895264 382.046387 688.243408 382.046387 Z" fill="#202124"/><path d="M 773.5 50 L 773.5 360 L 774.5 360 L 774.5 50 Z" fill="#D9DDE3"/><path d="M 760.365479 389.297363 L 764.1521 389.297363 L 764.1521 390.210449 L 759.060303 390.210449 L 759.060303 389.297363 Q 759.677979 388.658203 760.744141 387.581299 Q 761.810303 386.504395 762.084229 386.192871 Q 762.605225 385.607422 762.812012 385.201904 Q 763.018799 384.796387 763.018799 384.404297 Q 763.018799 383.765137 762.570312 383.362305 Q 762.121826 382.959473 761.4021 382.959473 Q 760.891846 382.959473 760.325195 383.136719 Q 759.758545 383.313965 759.114014 383.673828 L 759.114014 382.578125 Q 759.769287 382.314941 760.338623 382.180664 Q 760.907959 382.046387 761.380615 382.046387 Q 762.626709 382.046387 763.36792 382.669434 Q 764.109131 383.29248 764.109131 384.334473 Q 764.109131 384.828613 763.923828 385.271729 Q 763.738525 385.714844 763.249756 386.316406 Q 763.115479 386.472168 762.395752 387.216064 Q 761.676025 387.959961 760.365479 389.297363 Z M 766.429443 388.846191 L 767.562744 388.846191 L 767.562744 390.210449 L 766.429443 390.210449 Z M 769.936768 382.191406 L 774.196045 382.191406 L 774.196045 383.104492 L 770.93042 383.104492 L 770.93042 385.070312 Q 771.166748 384.989746 771.403076 384.949463 Q 771.639404 384.90918 771.875732 384.90918 Q 773.218506 384.90918 774.002686 385.64502 Q 774.786865 386.380859 774.786865 387.637695 Q 774.786865 388.932129 773.981201 389.64917 Q 773.175537 390.366211 771.709229 390.366211 Q 771.204346 390.366211 770.680664 390.280273 Q 770.156982 390.194336 769.598389 390.022461 L 769.598389 388.932129 Q 770.081787 389.195312 770.597412 389.324219 Q 771.113037 389.453125 771.687744 389.453125 Q 772.616943 389.453125 773.159424 388.964355 Q 773.701904 388.475586 773.701904 387.637695 Q 773.701904 386.799805 773.159424 386.311035 Q 772.616943 385.822266 771.687744 385.822266 Q 771.252686 385.822266 770.820312 385.918945 Q 770.387939 386.015625 769.936768 386.219727 Z M 779.244873 382.905762 Q 778.406982 382.905762 777.985352 383.730225 Q 777.563721 384.554688 777.563721 386.208984 Q 777.563721 387.85791 777.985352 388.682373 Q 778.406982 389.506836 779.244873 389.506836 Q 780.088135 389.506836 780.509766 388.682373 Q 780.931396 387.85791 780.931396 386.208984 Q 780.931396 384.554688 780.509766 383.730225 Q 780.088135 382.905762 779.244873 382.905762 Z M 779.244873 382.046387 Q 780.593018 382.046387 781.304688 383.112549 Q 782.016357 384.178711 782.016357 386.208984 Q 782.016357 388.233887 781.304688 389.300049 Q 780.593018 390.366211 779.244873 390.366211 Q 777.896729 390.366211 777.185059 389.300049 Q 776.473389 388.233887 776.473389 386.208984 Q 776.473389 384.178711 777.185059 383.112549 Q 777.896729 382.046387 779.244873 382.046387 Z M 786.243408 382.905762 Q 785.405518 382.905762 784.983887 383.730225 Q 784.562256 384.554688 784.562256 386.208984 Q 784.562256 387.85791 784.983887 388.682373 Q 785.405518 389.506836 786.243408 389.506836 Q 787.08667 389.506836 787.508301 388.682373 Q 787.929932 387.85791 787.929932 386.208984 Q 787.929932 384.554688 787.508301 383.730225 Q 787.08667 382.905762 786.243408 382.905762 Z M 786.243408 382.046387 Q 787.591553 382.046387 788.303223 383.112549 Q 789.014893 384.178711 789.014893 386.208984 Q 789.014893 388.233887 788.303223 389.300049 Q 787.591553 390.366211 786.243408 390.366211 Q 784.895264 390.366211 784.183594 389.300049 Q 783.471924 388.233887 783.471924 386.208984 Q 783.471924 384.178711 784.183594 383.112549 Q 784.895264 382.046387 786.243408 382.046387 Z" fill="#202124"/><path d="M 871.5 50 L 871.5 360 L 872.5 360 L 872.5 50 Z" fill="#D9DDE3"/><path d="M 860.718018 385.886719 Q 861.496826 386.053223 861.93457 386.57959 Q 862.372314 387.105957 862.372314 387.879395 Q 862.372314 389.066406 861.555908 389.716309 Q 860.739502 390.366211 859.235596 390.366211 Q 858.730713 390.366211 858.196289 390.266846 Q 857.661865 390.16748 857.092529 389.96875 L 857.092529 388.921387 Q 857.543701 389.18457 858.080811 389.318848 Q 858.61792 389.453125 859.203369 389.453125 Q 860.223877 389.453125 860.758301 389.050293 Q 861.292725 388.647461 861.292725 387.879395 Q 861.292725 387.17041 860.795898 386.770264 Q 860.299072 386.370117 859.412842 386.370117 L 858.478271 386.370117 L 858.478271 385.478516 L 859.455811 385.478516 Q 860.256104 385.478516 860.68042 385.158936 Q 861.104736 384.839355 861.104736 384.237793 Q 861.104736 383.620117 860.666992 383.289795 Q 860.229248 382.959473 859.412842 382.959473 Q 858.967041 382.959473 858.456787 383.056152 Q 857.946533 383.152832 857.334229 383.356934 L 857.334229 382.390137 Q 857.951904 382.218262 858.491699 382.132324 Q 859.031494 382.046387 859.509521 382.046387 Q 860.744873 382.046387 861.4646 382.607666 Q 862.184326 383.168945 862.184326 384.125 Q 862.184326 384.791016 861.802979 385.250244 Q 861.421631 385.709473 860.718018 385.886719 Z M 864.429443 388.846191 L 865.562744 388.846191 L 865.562744 390.210449 L 864.429443 390.210449 Z M 867.6521 382.191406 L 872.80835 382.191406 L 872.80835 382.65332 L 869.897217 390.210449 L 868.763916 390.210449 L 871.503174 383.104492 L 867.6521 383.104492 Z M 874.935303 382.191406 L 879.19458 382.191406 L 879.19458 383.104492 L 875.928955 383.104492 L 875.928955 385.070312 Q 876.165283 384.989746 876.401611 384.949463 Q 876.637939 384.90918 876.874268 384.90918 Q 878.217041 384.90918 879.001221 385.64502 Q 879.7854 386.380859 879.7854 387.637695 Q 879.7854 388.932129 878.979736 389.64917 Q 878.174072 390.366211 876.707764 390.366211 Q 876.202881 390.366211 875.679199 390.280273 Q 875.155518 390.194336 874.596924 390.022461 L 874.596924 388.932129 Q 875.080322 389.195312 875.595947 389.324219 Q 876.111572 389.453125 876.686279 389.453125 Q 877.615479 389.453125 878.157959 388.964355 Q 878.700439 388.475586 878.700439 387.637695 Q 878.700439 386.799805 878.157959 386.311035 Q 877.615479 385.822266 876.686279 385.822266 Q 876.251221 385.822266 875.818848 385.918945 Q 875.386475 386.015625 874.935303 386.219727 Z M 884.243408 382.905762 Q 883.405518 382.905762 882.983887 383.730225 Q 882.562256 384.554688 882.562256 386.208984 Q 882.562256 387.85791 882.983887 388.682373 Q 883.405518 389.506836 884.243408 389.506836 Q 885.08667 389.506836 885.508301 388.682373 Q 885.929932 387.85791 885.929932 386.208984 Q 885.929932 384.554688 885.508301 383.730225 Q 885.08667 382.905762 884.243408 382.905762 Z M 884.243408 382.046387 Q 885.591553 382.046387 886.303223 383.112549 Q 887.014893 384.178711 887.014893 386.208984 Q 887.014893 388.233887 886.303223 389.300049 Q 885.591553 390.366211 884.243408 390.366211 Q 882.895264 390.366211 882.183594 389.300049 Q 881.471924 388.233887 881.471924 386.208984 Q 881.471924 384.178711 882.183594 383.112549 Q 882.895264 382.046387 884.243408 382.046387 Z" fill="#202124"/><path d="M 969.5 50 L 969.5 360 L 970.5 360 L 970.5 50 Z" fill="#D9DDE3"/><path d="M 955.44165 382.191406 L 959.700928 382.191406 L 959.700928 383.104492 L 956.435303 383.104492 L 956.435303 385.070312 Q 956.671631 384.989746 956.907959 384.949463 Q 957.144287 384.90918 957.380615 384.90918 Q 958.723389 384.90918 959.507568 385.64502 Q 960.291748 386.380859 960.291748 387.637695 Q 960.291748 388.932129 959.486084 389.64917 Q 958.68042 390.366211 957.214111 390.366211 Q 956.709229 390.366211 956.185547 390.280273 Q 955.661865 390.194336 955.103271 390.022461 L 955.103271 388.932129 Q 955.58667 389.195312 956.102295 389.324219 Q 956.61792 389.453125 957.192627 389.453125 Q 958.121826 389.453125 958.664307 388.964355 Q 959.206787 388.475586 959.206787 387.637695 Q 959.206787 386.799805 958.664307 386.311035 Q 958.121826 385.822266 957.192627 385.822266 Q 956.757568 385.822266 956.325195 385.918945 Q 955.892822 386.015625 955.44165 386.219727 Z M 962.429443 388.846191 L 963.562744 388.846191 L 963.562744 390.210449 L 962.429443 390.210449 Z M 968.246338 382.905762 Q 967.408447 382.905762 966.986816 383.730225 Q 966.565186 384.554688 966.565186 386.208984 Q 966.565186 387.85791 966.986816 388.682373 Q 967.408447 389.506836 968.246338 389.506836 Q 969.0896 389.506836 969.51123 388.682373 Q 969.932861 387.85791 969.932861 386.208984 Q 969.932861 384.554688 969.51123 383.730225 Q 969.0896 382.905762 968.246338 382.905762 Z M 968.246338 382.046387 Q 969.594482 382.046387 970.306152 383.112549 Q 971.017822 384.178711 971.017822 386.208984 Q 971.017822 388.233887 970.306152 389.300049 Q 969.594482 390.366211 968.246338 390.366211 Q 966.898193 390.366211 966.186523 389.300049 Q 965.474854 388.233887 965.474854 386.208984 Q 965.474854 384.178711 966.186523 383.112549 Q 966.898193 382.046387 968.246338 382.046387 Z M 975.244873 382.905762 Q 974.406982 382.905762 973.985352 383.730225 Q 973.563721 384.554688 973.563721 386.208984 Q 973.563721 387.85791 973.985352 388.682373 Q 974.406982 389.506836 975.244873 389.506836 Q 976.088135 389.506836 976.509766 388.682373 Q 976.931396 387.85791 976.931396 386.208984 Q 976.931396 384.554688 976.509766 383.730225 Q 976.088135 382.905762 975.244873 382.905762 Z M 975.244873 382.046387 Q 976.593018 382.046387 977.304688 383.112549 Q 978.016357 384.178711 978.016357 386.208984 Q 978.016357 388.233887 977.304688 389.300049 Q 976.593018 390.366211 975.244873 390.366211 Q 973.896729 390.366211 973.185059 389.300049 Q 972.473389 388.233887 972.473389 386.208984 Q 972.473389 384.178711 973.185059 383.112549 Q 973.896729 382.046387 975.244873 382.046387 Z M 982.243408 382.905762 Q 981.405518 382.905762 980.983887 383.730225 Q 980.562256 384.554688 980.562256 386.208984 Q 980.562256 387.85791 980.983887 388.682373 Q 981.405518 389.506836 982.243408 389.506836 Q 983.08667 389.506836 983.508301 388.682373 Q 983.929932 387.85791 983.929932 386.208984 Q 983.929932 384.554688 983.508301 383.730225 Q 983.08667 382.905762 982.243408 382.905762 Z M 982.243408 382.046387 Q 983.591553 382.046387 984.303223 383.112549 Q 985.014893 384.178711 985.014893 386.208984 Q 985.014893 388.233887 984.303223 389.300049 Q 983.591553 390.366211 982.243408 390.366211 Q 980.895264 390.366211 980.183594 389.300049 Q 979.471924 388.233887 979.471924 386.208984 Q 979.471924 384.178711 980.183594 383.112549 Q 980.895264 382.046387 982.243408 382.046387 Z" fill="#202124"/><path d="M 578 360.5 L 970 360.5 L 970 359.5 L 578 359.5 Z" fill="#D9DDE3"/><path d="M 514.364258 369.297363 L 516.136719 369.297363 L 516.136719 363.179688 L 514.208496 363.566406 L 514.208496 362.578125 L 516.125977 362.191406 L 517.210938 362.191406 L 517.210938 369.297363 L 518.983398 369.297363 L 518.983398 370.210449 L 514.364258 370.210449 Z M 521.174805 368.846191 L 522.308105 368.846191 L 522.308105 370.210449 L 521.174805 370.210449 Z M 525.605957 369.297363 L 529.392578 369.297363 L 529.392578 370.210449 L 524.300781 370.210449 L 524.300781 369.297363 Q 524.918457 368.658203 525.984619 367.581299 Q 527.050781 366.504395 527.324707 366.192871 Q 527.845703 365.607422 528.05249 365.201904 Q 528.259277 364.796387 528.259277 364.404297 Q 528.259277 363.765137 527.810791 363.362305 Q 527.362305 362.959473 526.642578 362.959473 Q 526.132324 362.959473 525.565674 363.136719 Q 524.999023 363.313965 524.354492 363.673828 L 524.354492 362.578125 Q 525.009766 362.314941 525.579102 362.180664 Q 526.148438 362.046387 526.621094 362.046387 Q 527.867188 362.046387 528.608398 362.669434 Q 529.349609 363.29248 529.349609 364.334473 Q 529.349609 364.828613 529.164307 365.271729 Q 528.979004 365.714844 528.490234 366.316406 Q 528.355957 366.472168 527.63623 367.216064 Q 526.916504 367.959961 525.605957 369.297363 Z M 533.990234 362.905762 Q 533.152344 362.905762 532.730713 363.730225 Q 532.309082 364.554688 532.309082 366.208984 Q 532.309082 367.85791 532.730713 368.682373 Q 533.152344 369.506836 533.990234 369.506836 Q 534.833496 369.506836 535.255127 368.682373 Q 535.676758 367.85791 535.676758 366.208984 Q 535.676758 364.554688 535.255127 363.730225 Q 534.833496 362.905762 533.990234 362.905762 Z M 533.990234 362.046387 Q 535.338379 362.046387 536.050049 363.112549 Q 536.761719 364.178711 536.761719 366.208984 Q 536.761719 368.233887 536.050049 369.300049 Q 535.338379 370.366211 533.990234 370.366211 Q 532.64209 370.366211 531.93042 369.300049 Q 531.21875 368.233887 531.21875 366.208984 Q 531.21875 364.178711 531.93042 363.112549 Q 532.64209 362.046387 533.990234 362.046387 Z M 540.98877 362.905762 Q 540.150879 362.905762 539.729248 363.730225 Q 539.307617 364.554688 539.307617 366.208984 Q 539.307617 367.85791 539.729248 368.682373 Q 540.150879 369.506836 540.98877 369.506836 Q 541.832031 369.506836 542.253662 368.682373 Q 542.675293 367.85791 542.675293 366.208984 Q 542.675293 364.554688 542.253662 363.730225 Q 541.832031 362.905762 540.98877 362.905762 Z M 540.98877 362.046387 Q 542.336914 362.046387 543.048584 363.112549 Q 543.760254 364.178711 543.760254 366.208984 Q 543.760254 368.233887 543.048584 369.300049 Q 542.336914 370.366211 540.98877 370.366211 Q 539.640625 370.366211 538.928955 369.300049 Q 538.217285 368.233887 538.217285 366.208984 Q 538.217285 364.178711 538.928955 363.112549 Q 539.640625 362.046387 540.98877 362.046387 Z" fill="#202124"/><path d="M 578 283 L 970 283 L 970 282 L 578 282 Z" fill="#D9DDE3"/><path d="M 515.11084 291.797363 L 518.897461 291.797363 L 518.897461 292.710449 L 513.805664 292.710449 L 513.805664 291.797363 Q 514.42334 291.158203 515.489502 290.081299 Q 516.555664 289.004395 516.82959 288.692871 Q 517.350586 288.107422 517.557373 287.701904 Q 517.76416 287.296387 517.76416 286.904297 Q 517.76416 286.265137 517.315674 285.862305 Q 516.867188 285.459473 516.147461 285.459473 Q 515.637207 285.459473 515.070557 285.636719 Q 514.503906 285.813965 513.859375 286.173828 L 513.859375 285.078125 Q 514.514648 284.814941 515.083984 284.680664 Q 515.65332 284.546387 516.125977 284.546387 Q 517.37207 284.546387 518.113281 285.169434 Q 518.854492 285.79248 518.854492 286.834473 Q 518.854492 287.328613 518.669189 287.771729 Q 518.483887 288.214844 517.995117 288.816406 Q 517.86084 288.972168 517.141113 289.716064 Q 516.421387 290.459961 515.11084 291.797363 Z M 521.174805 291.346191 L 522.308105 291.346191 L 522.308105 292.710449 L 521.174805 292.710449 Z M 526.991699 285.405762 Q 526.153809 285.405762 525.732178 286.230225 Q 525.310547 287.054688 525.310547 288.708984 Q 525.310547 290.35791 525.732178 291.182373 Q 526.153809 292.006836 526.991699 292.006836 Q 527.834961 292.006836 528.256592 291.182373 Q 528.678223 290.35791 528.678223 288.708984 Q 528.678223 287.054688 528.256592 286.230225 Q 527.834961 285.405762 526.991699 285.405762 Z M 526.991699 284.546387 Q 528.339844 284.546387 529.051514 285.612549 Q 529.763184 286.678711 529.763184 288.708984 Q 529.763184 290.733887 529.051514 291.800049 Q 528.339844 292.866211 526.991699 292.866211 Q 525.643555 292.866211 524.931885 291.800049 Q 524.220215 290.733887 524.220215 288.708984 Q 524.220215 286.678711 524.931885 285.612549 Q 525.643555 284.546387 526.991699 284.546387 Z M 531.680664 284.691406 L 535.939941 284.691406 L 535.939941 285.604492 L 532.674316 285.604492 L 532.674316 287.570312 Q 532.910645 287.489746 533.146973 287.449463 Q 533.383301 287.40918 533.619629 287.40918 Q 534.962402 287.40918 535.746582 288.14502 Q 536.530762 288.880859 536.530762 290.137695 Q 536.530762 291.432129 535.725098 292.14917 Q 534.919434 292.866211 533.453125 292.866211 Q 532.948242 292.866211 532.424561 292.780273 Q 531.900879 292.694336 531.342285 292.522461 L 531.342285 291.432129 Q 531.825684 291.695312 532.341309 291.824219 Q 532.856934 291.953125 533.431641 291.953125 Q 534.36084 291.953125 534.90332 291.464355 Q 535.445801 290.975586 535.445801 290.137695 Q 535.445801 289.299805 534.90332 288.811035 Q 534.36084 288.322266 533.431641 288.322266 Q 532.996582 288.322266 532.564209 288.418945 Q 532.131836 288.515625 531.680664 288.719727 Z M 540.98877 285.405762 Q 540.150879 285.405762 539.729248 286.230225 Q 539.307617 287.054688 539.307617 288.708984 Q 539.307617 290.35791 539.729248 291.182373 Q 540.150879 292.006836 540.98877 292.006836 Q 541.832031 292.006836 542.253662 291.182373 Q 542.675293 290.35791 542.675293 288.708984 Q 542.675293 287.054688 542.253662 286.230225 Q 541.832031 285.405762 540.98877 285.405762 Z M 540.98877 284.546387 Q 542.336914 284.546387 543.048584 285.612549 Q 543.760254 286.678711 543.760254 288.708984 Q 543.760254 290.733887 543.048584 291.800049 Q 542.336914 292.866211 540.98877 292.866211 Q 539.640625 292.866211 538.928955 291.800049 Q 538.217285 290.733887 538.217285 288.708984 Q 538.217285 286.678711 538.928955 285.612549 Q 539.640625 284.546387 540.98877 284.546387 Z" fill="#202124"/><path d="M 578 205.5 L 970 205.5 L 970 204.5 L 578 204.5 Z" fill="#D9DDE3"/><path d="M 515.11084 214.297363 L 518.897461 214.297363 L 518.897461 215.210449 L 513.805664 215.210449 L 513.805664 214.297363 Q 514.42334 213.658203 515.489502 212.581299 Q 516.555664 211.504395 516.82959 211.192871 Q 517.350586 210.607422 517.557373 210.201904 Q 517.76416 209.796387 517.76416 209.404297 Q 517.76416 208.765137 517.315674 208.362305 Q 516.867188 207.959473 516.147461 207.959473 Q 515.637207 207.959473 515.070557 208.136719 Q 514.503906 208.313965 513.859375 208.673828 L 513.859375 207.578125 Q 514.514648 207.314941 515.083984 207.180664 Q 515.65332 207.046387 516.125977 207.046387 Q 517.37207 207.046387 518.113281 207.669434 Q 518.854492 208.29248 518.854492 209.334473 Q 518.854492 209.828613 518.669189 210.271729 Q 518.483887 210.714844 517.995117 211.316406 Q 517.86084 211.472168 517.141113 212.216064 Q 516.421387 212.959961 515.11084 214.297363 Z M 521.174805 213.846191 L 522.308105 213.846191 L 522.308105 215.210449 L 521.174805 215.210449 Z M 524.703613 215.043945 L 524.703613 214.055664 Q 525.111816 214.249023 525.530762 214.351074 Q 525.949707 214.453125 526.352539 214.453125 Q 527.426758 214.453125 527.993408 213.730713 Q 528.560059 213.008301 528.640625 211.536621 Q 528.329102 211.998535 527.851074 212.245605 Q 527.373047 212.492676 526.792969 212.492676 Q 525.589844 212.492676 524.888916 211.764893 Q 524.187988 211.037109 524.187988 209.774902 Q 524.187988 208.539551 524.918457 207.792969 Q 525.648926 207.046387 526.862793 207.046387 Q 528.253906 207.046387 528.987061 208.112549 Q 529.720215 209.178711 529.720215 211.208984 Q 529.720215 213.10498 528.820557 214.235596 Q 527.920898 215.366211 526.400879 215.366211 Q 525.992676 215.366211 525.57373 215.285645 Q 525.154785 215.205078 524.703613 215.043945 Z M 526.862793 211.644043 Q 527.593262 211.644043 528.020264 211.144531 Q 528.447266 210.64502 528.447266 209.774902 Q 528.447266 208.910156 528.020264 208.407959 Q 527.593262 207.905762 526.862793 207.905762 Q 526.132324 207.905762 525.705322 208.407959 Q 525.27832 208.910156 525.27832 209.774902 Q 525.27832 210.64502 525.705322 211.144531 Q 526.132324 211.644043 526.862793 211.644043 Z M 533.990234 207.905762 Q 533.152344 207.905762 532.730713 208.730225 Q 532.309082 209.554688 532.309082 211.208984 Q 532.309082 212.85791 532.730713 213.682373 Q 533.152344 214.506836 533.990234 214.506836 Q 534.833496 214.506836 535.255127 213.682373 Q 535.676758 212.85791 535.676758 211.208984 Q 535.676758 209.554688 535.255127 208.730225 Q 534.833496 207.905762 533.990234 207.905762 Z M 533.990234 207.046387 Q 535.338379 207.046387 536.050049 208.112549 Q 536.761719 209.178711 536.761719 211.208984 Q 536.761719 213.233887 536.050049 214.300049 Q 535.338379 215.366211 533.990234 215.366211 Q 532.64209 215.366211 531.93042 214.300049 Q 531.21875 213.233887 531.21875 211.208984 Q 531.21875 209.178711 531.93042 208.112549 Q 532.64209 207.046387 533.990234 207.046387 Z M 540.98877 207.905762 Q 540.150879 207.905762 539.729248 208.730225 Q 539.307617 209.554688 539.307617 211.208984 Q 539.307617 212.85791 539.729248 213.682373 Q 540.150879 214.506836 540.98877 214.506836 Q 541.832031 214.506836 542.253662 213.682373 Q 542.675293 212.85791 542.675293 211.208984 Q 542.675293 209.554688 542.253662 208.730225 Q 541.832031 207.905762 540.98877 207.905762 Z M 540.98877 207.046387 Q 542.336914 207.046387 543.048584 208.112549 Q 543.760254 209.178711 543.760254 211.208984 Q 543.760254 213.233887 543.048584 214.300049 Q 542.336914 215.366211 540.98877 215.366211 Q 539.640625 215.366211 538.928955 214.300049 Q 538.217285 213.233887 538.217285 211.208984 Q 538.217285 209.178711 538.928955 208.112549 Q 539.640625 207.046387 540.98877 207.046387 Z" fill="#202124"/><path d="M 578 128 L 970 128 L 970 127 L 578 127 Z" fill="#D9DDE3"/><path d="M 517.463379 133.386719 Q 518.242188 133.553223 518.679932 134.07959 Q 519.117676 134.605957 519.117676 135.379395 Q 519.117676 136.566406 518.30127 137.216309 Q 517.484863 137.866211 515.980957 137.866211 Q 515.476074 137.866211 514.94165 137.766846 Q 514.407227 137.66748 513.837891 137.46875 L 513.837891 136.421387 Q 514.289062 136.68457 514.826172 136.818848 Q 515.363281 136.953125 515.94873 136.953125 Q 516.969238 136.953125 517.503662 136.550293 Q 518.038086 136.147461 518.038086 135.379395 Q 518.038086 134.67041 517.54126 134.270264 Q 517.044434 133.870117 516.158203 133.870117 L 515.223633 133.870117 L 515.223633 132.978516 L 516.201172 132.978516 Q 517.001465 132.978516 517.425781 132.658936 Q 517.850098 132.339355 517.850098 131.737793 Q 517.850098 131.120117 517.412354 130.789795 Q 516.974609 130.459473 516.158203 130.459473 Q 515.712402 130.459473 515.202148 130.556152 Q 514.691895 130.652832 514.07959 130.856934 L 514.07959 129.890137 Q 514.697266 129.718262 515.237061 129.632324 Q 515.776855 129.546387 516.254883 129.546387 Q 517.490234 129.546387 518.209961 130.107666 Q 518.929688 130.668945 518.929688 131.625 Q 518.929688 132.291016 518.54834 132.750244 Q 518.166992 133.209473 517.463379 133.386719 Z M 521.174805 136.346191 L 522.308105 136.346191 L 522.308105 137.710449 L 521.174805 137.710449 Z M 524.397461 129.691406 L 529.553711 129.691406 L 529.553711 130.15332 L 526.642578 137.710449 L 525.509277 137.710449 L 528.248535 130.604492 L 524.397461 130.604492 Z M 531.680664 129.691406 L 535.939941 129.691406 L 535.939941 130.604492 L 532.674316 130.604492 L 532.674316 132.570312 Q 532.910645 132.489746 533.146973 132.449463 Q 533.383301 132.40918 533.619629 132.40918 Q 534.962402 132.40918 535.746582 133.14502 Q 536.530762 133.880859 536.530762 135.137695 Q 536.530762 136.432129 535.725098 137.14917 Q 534.919434 137.866211 533.453125 137.866211 Q 532.948242 137.866211 532.424561 137.780273 Q 531.900879 137.694336 531.342285 137.522461 L 531.342285 136.432129 Q 531.825684 136.695312 532.341309 136.824219 Q 532.856934 136.953125 533.431641 136.953125 Q 534.36084 136.953125 534.90332 136.464355 Q 535.445801 135.975586 535.445801 135.137695 Q 535.445801 134.299805 534.90332 133.811035 Q 534.36084 133.322266 533.431641 133.322266 Q 532.996582 133.322266 532.564209 133.418945 Q 532.131836 133.515625 531.680664 133.719727 Z M 540.98877 130.405762 Q 540.150879 130.405762 539.729248 131.230225 Q 539.307617 132.054688 539.307617 133.708984 Q 539.307617 135.35791 539.729248 136.182373 Q 540.150879 137.006836 540.98877 137.006836 Q 541.832031 137.006836 542.253662 136.182373 Q 542.675293 135.35791 542.675293 133.708984 Q 542.675293 132.054688 542.253662 131.230225 Q 541.832031 130.405762 540.98877 130.405762 Z M 540.98877 129.546387 Q 542.336914 129.546387 543.048584 130.612549 Q 543.760254 131.678711 543.760254 133.708984 Q 543.760254 135.733887 543.048584 136.800049 Q 542.336914 137.866211 540.98877 137.866211 Q 539.640625 137.866211 538.928955 136.800049 Q 538.217285 135.733887 538.217285 133.708984 Q 538.217285 131.678711 538.928955 130.612549 Q 539.640625 129.546387 540.98877 129.546387 Z" fill="#202124"/><path d="M 578 50.5 L 970 50.5 L 970 49.5 L 578 49.5 Z" fill="#D9DDE3"/><path d="M 517.157227 53.136719 L 514.417969 57.41748 L 517.157227 57.41748 Z M 516.872559 52.191406 L 518.236816 52.191406 L 518.236816 57.41748 L 519.380859 57.41748 L 519.380859 58.319824 L 518.236816 58.319824 L 518.236816 60.210449 L 517.157227 60.210449 L 517.157227 58.319824 L 513.537109 58.319824 L 513.537109 57.272461 Z M 521.174805 58.846191 L 522.308105 58.846191 L 522.308105 60.210449 L 521.174805 60.210449 Z M 527.125977 55.768555 Q 526.395508 55.768555 525.968506 56.268066 Q 525.541504 56.767578 525.541504 57.637695 Q 525.541504 58.502441 525.968506 59.004639 Q 526.395508 59.506836 527.125977 59.506836 Q 527.856445 59.506836 528.283447 59.004639 Q 528.710449 58.502441 528.710449 57.637695 Q 528.710449 56.767578 528.283447 56.268066 Q 527.856445 55.768555 527.125977 55.768555 Z M 529.279785 52.368652 L 529.279785 53.356934 Q 528.871582 53.163574 528.455322 53.061523 Q 528.039062 52.959473 527.630859 52.959473 Q 526.556641 52.959473 525.98999 53.68457 Q 525.42334 54.409668 525.342773 55.875977 Q 525.659668 55.408691 526.137695 55.158936 Q 526.615723 54.90918 527.19043 54.90918 Q 528.398926 54.90918 529.099854 55.642334 Q 529.800781 56.375488 529.800781 57.637695 Q 529.800781 58.873047 529.070312 59.619629 Q 528.339844 60.366211 527.125977 60.366211 Q 525.734863 60.366211 524.999023 59.300049 Q 524.263184 58.233887 524.263184 56.208984 Q 524.263184 54.307617 525.165527 53.177002 Q 526.067871 52.046387 527.587891 52.046387 Q 527.996094 52.046387 528.412354 52.126953 Q 528.828613 52.20752 529.279785 52.368652 Z M 533.990234 52.905762 Q 533.152344 52.905762 532.730713 53.730225 Q 532.309082 54.554688 532.309082 56.208984 Q 532.309082 57.85791 532.730713 58.682373 Q 533.152344 59.506836 533.990234 59.506836 Q 534.833496 59.506836 535.255127 58.682373 Q 535.676758 57.85791 535.676758 56.208984 Q 535.676758 54.554688 535.255127 53.730225 Q 534.833496 52.905762 533.990234 52.905762 Z M 533.990234 52.046387 Q 535.338379 52.046387 536.050049 53.112549 Q 536.761719 54.178711 536.761719 56.208984 Q 536.761719 58.233887 536.050049 59.300049 Q 535.338379 60.366211 533.990234 60.366211 Q 532.64209 60.366211 531.93042 59.300049 Q 531.21875 58.233887 531.21875 56.208984 Q 531.21875 54.178711 531.93042 53.112549 Q 532.64209 52.046387 533.990234 52.046387 Z M 540.98877 52.905762 Q 540.150879 52.905762 539.729248 53.730225 Q 539.307617 54.554688 539.307617 56.208984 Q 539.307617 57.85791 539.729248 58.682373 Q 540.150879 59.506836 540.98877 59.506836 Q 541.832031 59.506836 542.253662 58.682373 Q 542.675293 57.85791 542.675293 56.208984 Q 542.675293 54.554688 542.253662 53.730225 Q 541.832031 52.905762 540.98877 52.905762 Z M 540.98877 52.046387 Q 542.336914 52.046387 543.048584 53.112549 Q 543.760254 54.178711 543.760254 56.208984 Q 543.760254 58.233887 543.048584 59.300049 Q 542.336914 60.366211 540.98877 60.366211 Q 539.640625 60.366211 538.928955 59.300049 Q 538.217285 58.233887 538.217285 56.208984 Q 538.217285 54.178711 538.928955 53.112549 Q 539.640625 52.046387 540.98877 52.046387 Z" fill="#202124"/><path d="M 581.541992 30.044922 L 581.541992 34.975586 L 583.774414 34.975586 Q 585.013672 34.975586 585.69043 34.333984 Q 586.367188 33.692383 586.367188 32.505859 Q 586.367188 31.328125 585.69043 30.686523 Q 585.013672 30.044922 583.774414 30.044922 Z M 579.766602 28.585938 L 583.774414 28.585938 Q 585.980469 28.585938 587.109863 29.583496 Q 588.239258 30.581055 588.239258 32.505859 Q 588.239258 34.448242 587.109863 35.441406 Q 585.980469 36.43457 583.774414 36.43457 L 581.541992 36.43457 L 581.541992 41.708008 L 579.766602 41.708008 Z M 594.646484 42.62207 Q 593.960938 44.379883 593.310547 44.916016 Q 592.660156 45.452148 591.570312 45.452148 L 590.27832 45.452148 L 590.27832 44.098633 L 591.227539 44.098633 Q 591.895508 44.098633 592.264648 43.782227 Q 592.633789 43.46582 593.082031 42.288086 L 593.37207 41.549805 L 589.390625 31.864258 L 591.104492 31.864258 L 594.180664 39.563477 L 597.256836 31.864258 L 598.970703 31.864258 Z M 602.802734 29.069336 L 602.802734 31.864258 L 606.133789 31.864258 L 606.133789 33.121094 L 602.802734 33.121094 L 602.802734 38.464844 Q 602.802734 39.668945 603.132324 40.011719 Q 603.461914 40.354492 604.472656 40.354492 L 606.133789 40.354492 L 606.133789 41.708008 L 604.472656 41.708008 Q 602.600586 41.708008 601.888672 41.009277 Q 601.176758 40.310547 601.176758 38.464844 L 601.176758 33.121094 L 599.990234 33.121094 L 599.990234 31.864258 L 601.176758 31.864258 L 601.176758 29.069336 Z M 616.443359 35.766602 L 616.443359 41.708008 L 614.826172 41.708008 L 614.826172 35.819336 Q 614.826172 34.421875 614.28125 33.727539 Q 613.736328 33.033203 612.646484 33.033203 Q 611.336914 33.033203 610.581055 33.868164 Q 609.825195 34.703125 609.825195 36.144531 L 609.825195 41.708008 L 608.199219 41.708008 L 608.199219 28.032227 L 609.825195 28.032227 L 609.825195 33.393555 Q 610.405273 32.505859 611.191895 32.066406 Q 611.978516 31.626953 613.006836 31.626953 Q 614.703125 31.626953 615.573242 32.677246 Q 616.443359 33.727539 616.443359 35.766602 Z M 623.483398 32.998047 Q 622.182617 32.998047 621.426758 34.013184 Q 620.670898 35.02832 620.670898 36.794922 Q 620.670898 38.561523 621.422363 39.57666 Q 622.173828 40.591797 623.483398 40.591797 Q 624.775391 40.591797 625.53125 39.572266 Q 626.287109 38.552734 626.287109 36.794922 Q 626.287109 35.045898 625.53125 34.021973 Q 624.775391 32.998047 623.483398 32.998047 Z M 623.483398 31.626953 Q 625.592773 31.626953 626.796875 32.998047 Q 628.000977 34.369141 628.000977 36.794922 Q 628.000977 39.211914 626.796875 40.587402 Q 625.592773 41.962891 623.483398 41.962891 Q 621.365234 41.962891 620.165527 40.587402 Q 618.96582 39.211914 618.96582 36.794922 Q 618.96582 34.369141 620.165527 32.998047 Q 621.365234 31.626953 623.483398 31.626953 Z M 638.864258 35.766602 L 638.864258 41.708008 L 637.24707 41.708008 L 637.24707 35.819336 Q 637.24707 34.421875 636.702148 33.727539 Q 636.157227 33.033203 635.067383 33.033203 Q 633.757812 33.033203 633.001953 33.868164 Q 632.246094 34.703125 632.246094 36.144531 L 632.246094 41.708008 L 630.620117 41.708008 L 630.620117 31.864258 L 632.246094 31.864258 L 632.246094 33.393555 Q 632.826172 32.505859 633.612793 32.066406 Q 634.399414 31.626953 635.427734 31.626953 Q 637.124023 31.626953 637.994141 32.677246 Q 638.864258 33.727539 638.864258 35.766602 Z M 654.086914 32.154297 L 654.086914 33.683594 Q 653.401367 33.332031 652.663086 33.15625 Q 651.924805 32.980469 651.133789 32.980469 Q 649.929688 32.980469 649.327637 33.349609 Q 648.725586 33.71875 648.725586 34.457031 Q 648.725586 35.019531 649.15625 35.340332 Q 649.586914 35.661133 650.887695 35.951172 L 651.441406 36.074219 Q 653.164062 36.443359 653.88916 37.115723 Q 654.614258 37.788086 654.614258 38.992188 Q 654.614258 40.363281 653.528809 41.163086 Q 652.443359 41.962891 650.544922 41.962891 Q 649.753906 41.962891 648.896973 41.809082 Q 648.040039 41.655273 647.09082 41.347656 L 647.09082 39.677734 Q 647.987305 40.143555 648.857422 40.376465 Q 649.727539 40.609375 650.580078 40.609375 Q 651.722656 40.609375 652.337891 40.218262 Q 652.953125 39.827148 652.953125 39.115234 Q 652.953125 38.456055 652.509277 38.104492 Q 652.06543 37.75293 650.5625 37.427734 L 650 37.295898 Q 648.49707 36.979492 647.829102 36.324707 Q 647.161133 35.669922 647.161133 34.527344 Q 647.161133 33.138672 648.145508 32.382812 Q 649.129883 31.626953 650.94043 31.626953 Q 651.836914 31.626953 652.62793 31.758789 Q 653.418945 31.890625 654.086914 32.154297 Z M 664.273438 32.242188 L 664.273438 33.753906 Q 663.587891 33.375977 662.897949 33.187012 Q 662.208008 32.998047 661.504883 32.998047 Q 659.931641 32.998047 659.061523 33.995605 Q 658.191406 34.993164 658.191406 36.794922 Q 658.191406 38.59668 659.061523 39.594238 Q 659.931641 40.591797 661.504883 40.591797 Q 662.208008 40.591797 662.897949 40.402832 Q 663.587891 40.213867 664.273438 39.835938 L 664.273438 41.330078 Q 663.59668 41.646484 662.871582 41.804688 Q 662.146484 41.962891 661.329102 41.962891 Q 659.105469 41.962891 657.795898 40.56543 Q 656.486328 39.167969 656.486328 36.794922 Q 656.486328 34.386719 657.809082 33.006836 Q 659.131836 31.626953 661.43457 31.626953 Q 662.181641 31.626953 662.893555 31.780762 Q 663.605469 31.93457 664.273438 32.242188 Z M 671.55957 36.759766 Q 669.599609 36.759766 668.84375 37.208008 Q 668.087891 37.65625 668.087891 38.737305 Q 668.087891 39.598633 668.654785 40.104004 Q 669.22168 40.609375 670.197266 40.609375 Q 671.541992 40.609375 672.35498 39.655762 Q 673.167969 38.702148 673.167969 37.120117 L 673.167969 36.759766 Z M 674.785156 36.091797 L 674.785156 41.708008 L 673.167969 41.708008 L 673.167969 40.213867 Q 672.614258 41.110352 671.788086 41.536621 Q 670.961914 41.962891 669.766602 41.962891 Q 668.254883 41.962891 667.362793 41.114746 Q 666.470703 40.266602 666.470703 38.842773 Q 666.470703 37.181641 667.58252 36.337891 Q 668.694336 35.494141 670.900391 35.494141 L 673.167969 35.494141 L 673.167969 35.335938 Q 673.167969 34.219727 672.434082 33.608887 Q 671.700195 32.998047 670.373047 32.998047 Q 669.529297 32.998047 668.729492 33.200195 Q 667.929688 33.402344 667.191406 33.806641 L 667.191406 32.3125 Q 668.079102 31.969727 668.914062 31.79834 Q 669.749023 31.626953 670.540039 31.626953 Q 672.675781 31.626953 673.730469 32.734375 Q 674.785156 33.841797 674.785156 36.091797 Z M 679.71582 29.069336 L 679.71582 31.864258 L 683.046875 31.864258 L 683.046875 33.121094 L 679.71582 33.121094 L 679.71582 38.464844 Q 679.71582 39.668945 680.04541 40.011719 Q 680.375 40.354492 681.385742 40.354492 L 683.046875 40.354492 L 683.046875 41.708008 L 681.385742 41.708008 Q 679.513672 41.708008 678.801758 41.009277 Q 678.089844 40.310547 678.089844 38.464844 L 678.089844 33.121094 L 676.90332 33.121094 L 676.90332 31.864258 L 678.089844 31.864258 L 678.089844 29.069336 Z M 686.773438 29.069336 L 686.773438 31.864258 L 690.104492 31.864258 L 690.104492 33.121094 L 686.773438 33.121094 L 686.773438 38.464844 Q 686.773438 39.668945 687.103027 40.011719 Q 687.432617 40.354492 688.443359 40.354492 L 690.104492 40.354492 L 690.104492 41.708008 L 688.443359 41.708008 Q 686.571289 41.708008 685.859375 41.009277 Q 685.147461 40.310547 685.147461 38.464844 L 685.147461 33.121094 L 683.960938 33.121094 L 683.960938 31.864258 L 685.147461 31.864258 L 685.147461 29.069336 Z M 700.651367 36.381836 L 700.651367 37.172852 L 693.21582 37.172852 Q 693.321289 38.842773 694.222168 39.717285 Q 695.123047 40.591797 696.731445 40.591797 Q 697.663086 40.591797 698.537598 40.363281 Q 699.412109 40.134766 700.273438 39.677734 L 700.273438 41.207031 Q 699.40332 41.576172 698.489258 41.769531 Q 697.575195 41.962891 696.634766 41.962891 Q 694.279297 41.962891 692.903809 40.591797 Q 691.52832 39.220703 691.52832 36.882812 Q 691.52832 34.46582 692.833496 33.046387 Q 694.138672 31.626953 696.353516 31.626953 Q 698.339844 31.626953 699.495605 32.905762 Q 700.651367 34.18457 700.651367 36.381836 Z M 699.03418 35.907227 Q 699.016602 34.580078 698.291504 33.789062 Q 697.566406 32.998047 696.371094 32.998047 Q 695.017578 32.998047 694.20459 33.762695 Q 693.391602 34.527344 693.268555 35.916016 Z M 709.009766 33.375977 Q 708.737305 33.217773 708.416504 33.143066 Q 708.095703 33.068359 707.708984 33.068359 Q 706.337891 33.068359 705.604004 33.960449 Q 704.870117 34.852539 704.870117 36.522461 L 704.870117 41.708008 L 703.244141 41.708008 L 703.244141 31.864258 L 704.870117 31.864258 L 704.870117 33.393555 Q 705.379883 32.49707 706.197266 32.062012 Q 707.014648 31.626953 708.183594 31.626953 Q 708.350586 31.626953 708.552734 31.648926 Q 708.754883 31.670898 709.000977 31.714844 Z M 717.992188 40.231445 L 717.992188 45.452148 L 716.366211 45.452148 L 716.366211 31.864258 L 717.992188 31.864258 L 717.992188 33.358398 Q 718.501953 32.479492 719.279785 32.053223 Q 720.057617 31.626953 721.138672 31.626953 Q 722.931641 31.626953 724.052246 33.050781 Q 725.172852 34.474609 725.172852 36.794922 Q 725.172852 39.115234 724.052246 40.539062 Q 722.931641 41.962891 721.138672 41.962891 Q 720.057617 41.962891 719.279785 41.536621 Q 718.501953 41.110352 717.992188 40.231445 Z M 723.494141 36.794922 Q 723.494141 35.010742 722.760254 33.995605 Q 722.026367 32.980469 720.743164 32.980469 Q 719.459961 32.980469 718.726074 33.995605 Q 717.992188 35.010742 717.992188 36.794922 Q 717.992188 38.579102 718.726074 39.594238 Q 719.459961 40.609375 720.743164 40.609375 Q 722.026367 40.609375 722.760254 39.594238 Q 723.494141 38.579102 723.494141 36.794922 Z M 732.327148 36.759766 Q 730.367188 36.759766 729.611328 37.208008 Q 728.855469 37.65625 728.855469 38.737305 Q 728.855469 39.598633 729.422363 40.104004 Q 729.989258 40.609375 730.964844 40.609375 Q 732.30957 40.609375 733.122559 39.655762 Q 733.935547 38.702148 733.935547 37.120117 L 733.935547 36.759766 Z M 735.552734 36.091797 L 735.552734 41.708008 L 733.935547 41.708008 L 733.935547 40.213867 Q 733.381836 41.110352 732.555664 41.536621 Q 731.729492 41.962891 730.53418 41.962891 Q 729.022461 41.962891 728.130371 41.114746 Q 727.238281 40.266602 727.238281 38.842773 Q 727.238281 37.181641 728.350098 36.337891 Q 729.461914 35.494141 731.667969 35.494141 L 733.935547 35.494141 L 733.935547 35.335938 Q 733.935547 34.219727 733.20166 33.608887 Q 732.467773 32.998047 731.140625 32.998047 Q 730.296875 32.998047 729.49707 33.200195 Q 728.697266 33.402344 727.958984 33.806641 L 727.958984 32.3125 Q 728.84668 31.969727 729.681641 31.79834 Q 730.516602 31.626953 731.307617 31.626953 Q 733.443359 31.626953 734.498047 32.734375 Q 735.552734 33.841797 735.552734 36.091797 Z M 747.066406 35.766602 L 747.066406 41.708008 L 745.449219 41.708008 L 745.449219 35.819336 Q 745.449219 34.421875 744.904297 33.727539 Q 744.359375 33.033203 743.269531 33.033203 Q 741.959961 33.033203 741.204102 33.868164 Q 740.448242 34.703125 740.448242 36.144531 L 740.448242 41.708008 L 738.822266 41.708008 L 738.822266 31.864258 L 740.448242 31.864258 L 740.448242 33.393555 Q 741.02832 32.505859 741.814941 32.066406 Q 742.601562 31.626953 743.629883 31.626953 Q 745.326172 31.626953 746.196289 32.677246 Q 747.066406 33.727539 747.066406 35.766602 Z M 758.711914 36.381836 L 758.711914 37.172852 L 751.276367 37.172852 Q 751.381836 38.842773 752.282715 39.717285 Q 753.183594 40.591797 754.791992 40.591797 Q 755.723633 40.591797 756.598145 40.363281 Q 757.472656 40.134766 758.333984 39.677734 L 758.333984 41.207031 Q 757.463867 41.576172 756.549805 41.769531 Q 755.635742 41.962891 754.695312 41.962891 Q 752.339844 41.962891 750.964355 40.591797 Q 749.588867 39.220703 749.588867 36.882812 Q 749.588867 34.46582 750.894043 33.046387 Q 752.199219 31.626953 754.414062 31.626953 Q 756.400391 31.626953 757.556152 32.905762 Q 758.711914 34.18457 758.711914 36.381836 Z M 757.094727 35.907227 Q 757.077148 34.580078 756.352051 33.789062 Q 755.626953 32.998047 754.431641 32.998047 Q 753.078125 32.998047 752.265137 33.762695 Q 751.452148 34.527344 751.329102 35.916016 Z M 761.366211 28.032227 L 762.983398 28.032227 L 762.983398 41.708008 L 761.366211 41.708008 Z" fill="#202124"/><path d="M 578 44 L 584 50 L 578 56 L 572 50 Z" fill="#7557B3" data-uplot-id="13757245211066428519"/><path d="M 656.400024 180.764709 L 662.400024 186.764709 L 656.400024 192.764709 L 650.400024 186.764709 Z" fill="#7557B3" data-uplot-id="13427082724269423081"/><path d="M 734.799988 126.058823 L 740.799988 132.058823 L 734.799988 138.058823 L 728.799988 132.058823 Z" fill="#7557B3" data-uplot-id="16834447057089888969"/><path d="M 813.200012 299.294128 L 819.200012 305.294128 L 813.200012 311.294128 L 807.200012 305.294128 Z" fill="#7557B3" data-uplot-id="16462000697783136304"/><path d="M 891.599976 262.823517 L 897.599976 268.823517 L 891.599976 274.823517 L 885.599976 268.823517 Z" fill="#7557B3" data-uplot-id="13877614986023876344"/><path d="M 970 354 L 976 360 L 970 366 L 964 360 Z" fill="#7557B3" data-uplot-id="13819372491320860226"/></svg>